<?xml version="1.0" encoding="utf-8"?>
<!-- Generator: Adobe Illustrator 26.2.1, SVG Export Plug-In . SVG Version: 6.00 Build 0)  -->
<svg version="1.1" id="Calque_1" xmlns="http://www.w3.org/2000/svg" xmlns:xlink="http://www.w3.org/1999/xlink" x="0px" y="0px"
	 viewBox="0 0 31.9 32" style="enable-background:new 0 0 31.9 32;" xml:space="preserve">
<style type="text/css">
	.st0{fill:#FFC524;}
	.st1{fill:#FF7E27;}
</style>
<g>
	<path class="st0" d="M20,7.7c-0.2,0.3-0.4,0.6-0.6,0.9s-0.5,0.5-0.7,0.8c-0.2,0.1-0.4,0.1-0.6,0.3c-0.2,0.1-0.4,0.3-0.5,0.4
		c-0.3,0.2-0.5,0.2-0.7,0c-0.1-0.1-0.2-0.1-0.3-0.2c-0.1-0.1-0.2-0.1-0.3-0.2c-0.2-0.2-0.5-0.3-0.8-0.2c0,0-0.1,0-0.1,0V9
		c0,0-0.1-0.1-0.1-0.1c0-0.1-0.1-0.1-0.1-0.1c-0.5-0.2-1-0.2-1.5,0c-0.2,0-0.3,0.1-0.5,0.1C12.9,9,12.7,9,12.6,9.1
		c-0.1,0.2-0.2,0.3-0.3,0.5C12.2,9.7,12.1,9.9,12,10c0,0.2,0,0.4,0.1,0.6c0,0.2,0,0.4,0.1,0.6c0.1,0.2,0.3,0.3,0.4,0.5
		c0.1,0.2,0.2,0.4,0.3,0.5c0.2,0.2,0.5,0.4,0.8,0.5c0.3,0.2,0.5,0.4,0.8,0.6c0.2,0.1,0.3,0.2,0.5,0.3c0.2,0.1,0.3,0.2,0.5,0.3
		c0.1,0.1,0.3,0.2,0.4,0.3c0.1,0.1,0.2,0.2,0.3,0.3c0.1,0,0.2,0.1,0.2,0.1c0.1,0.1,0.2,0.1,0.2,0.2c0.5,0.3,0.8,0.7,1,1.2
		c0.1,0.2,0.3,0.4,0.4,0.7s0.3,0.5,0.4,0.7c0.2,0.2,0.3,0.3,0.4,0.6c0.1,0.2,0.1,0.4,0.2,0.6c0,0,0,0.1,0,0.2
		c0.1,0.3,0.1,0.6,0.3,0.9c0.1,0.3,0.2,0.6,0.4,0.9c0.1,0.3,0.1,0.7,0.1,1c0,0.3,0,0.7-0.1,1c0,0.3,0,0.5-0.1,0.8
		c-0.1,0.3-0.2,0.5-0.3,0.7c0,0,0,0.1,0,0.1c0,0,0,0.1-0.1,0.1c-0.2,0.2-0.4,0.5-0.6,0.8c-0.1,0.3-0.3,0.6-0.5,0.9c0,0,0,0.1,0,0.1
		s0,0.1-0.1,0.1c-0.3,0.2-0.5,0.4-0.7,0.6c-0.2,0.2-0.4,0.4-0.6,0.6c-0.1,0.1-0.2,0.2-0.4,0.3S16.1,27.9,16,28l-0.8,0.4
		c-0.3,0-0.5,0.1-0.8,0.1c-0.3,0.1-0.6,0.1-0.9,0.3c-0.2,0.1-0.4,0.2-0.6,0.2c-0.2,0.1-0.4,0.1-0.7,0.2c-0.1,0-0.2,0.1-0.3,0.1
		c-0.1,0-0.2,0.1-0.3,0.1c-0.3-0.3-0.7-0.4-1.2-0.4c-0.3,0-0.5-0.1-0.8-0.2c-0.3-0.1-0.6-0.3-0.9-0.4c-0.3-0.1-0.6-0.3-0.8-0.6
		c-0.2-0.1-0.3-0.3-0.5-0.4c-0.2-0.1-0.3-0.2-0.4-0.3C6.9,27,6.7,27,6.6,26.9s-0.3-0.1-0.4-0.1c-0.2-0.1-0.3-0.3-0.3-0.4
		c0-0.2,0.1-0.4,0.3-0.6c0.1-0.2,0.3-0.4,0.4-0.6c0-0.2,0-0.4,0.1-0.6c0.2-0.3,0.5-0.6,0.8-1c0.3-0.3,0.5-0.7,0.8-1
		c0.1-0.1,0.2-0.2,0.4-0.3C8.7,22.2,8.8,22.1,9,22c0.5,0.1,1,0.3,1.5,0.4c0.5,0.2,1,0.3,1.5,0.4c0.1,0,0.2-0.1,0.2-0.1
		s0.1-0.1,0.1-0.1c0.1,0,0.1-0.1,0.2-0.1c0.1,0,0.1-0.1,0.1-0.1h0.7c0-0.1,0.1-0.1,0.1-0.1s0.1-0.1,0.1-0.1c0.1-0.3,0.2-0.5,0.3-0.8
		s0.2-0.5,0.2-0.8C14,20.5,14,20.2,13.9,20c-0.1-0.2-0.2-0.5-0.4-0.7c-0.1-0.1-0.2-0.2-0.4-0.3s-0.3-0.2-0.4-0.3
		c-0.5-0.1-0.9-0.2-1.4-0.4C10.9,18.1,10.5,18,10,18c-0.2-0.1-0.3-0.1-0.4-0.3c-0.1-0.1-0.2-0.2-0.4-0.3c-0.2-0.1-0.4-0.1-0.6-0.1
		c-0.2,0-0.4-0.1-0.5-0.3c-0.4-0.2-0.8-0.4-1.1-0.5c-0.1-0.2-0.3-0.3-0.4-0.5c-0.1-0.2-0.2-0.3-0.4-0.4C6.1,15.4,6,15.2,6,15
		c-0.1-0.2-0.2-0.4-0.3-0.6c-0.1-0.1-0.2-0.3-0.3-0.5s-0.2-0.4-0.2-0.5c-0.1-0.4-0.2-0.8-0.2-1.2C4.9,12,5,11.7,5,11.4
		c0-0.3,0.1-0.6,0.1-0.9L4.9,10C5,10,5.1,9.9,5.2,9.8c0.1-0.1,0.1-0.2,0.2-0.3c0.1-0.2,0.1-0.3,0.2-0.4s0.1-0.3,0.1-0.4
		c0-0.5,0.1-1,0.4-1.4C6.1,7.1,6.1,7,6.2,6.9s0.1-0.2,0.1-0.2c0.1-0.1,0.2-0.2,0.3-0.3c0.1-0.1,0.2-0.2,0.2-0.2C6.9,6.1,7,6,6.9,5.9
		s0-0.2,0-0.3C7,5.4,7.2,5.2,7.3,5.1c0.1-0.2,0.3-0.3,0.4-0.5c0.2-0.1,0.4-0.2,0.6-0.3C8.5,4.1,8.7,4,8.9,3.8C9,3.7,9.1,3.6,9.1,3.6
		c0.1,0,0.2-0.1,0.3-0.1c0.1-0.1,0.3-0.1,0.4-0.2c0.2-0.1,0.3-0.1,0.5-0.2C10.6,3.1,10.9,3,11.2,3c0.3,0,0.6-0.1,0.8-0.1
		c0,0,0.1,0,0.1,0c0,0,0.1,0,0.1,0c0.3,0.1,0.6,0.1,0.9,0c0.3-0.1,0.6-0.1,0.9-0.1c0.3,0,0.6,0,0.9,0.1s0.6,0.1,0.8,0.2
		c0.3,0.2,0.6,0.4,0.9,0.6c0.3,0.2,0.6,0.3,1,0.4c0.1,0.1,0.2,0.2,0.3,0.3c0.1,0.1,0.2,0.2,0.3,0.4c0.1,0.1,0.2,0.2,0.3,0.3
		c0.1,0.1,0.2,0.2,0.3,0.3c0.2,0.4,0.4,0.8,0.6,1.2C19.6,7,19.8,7.3,20,7.7z"/>
	<path class="st1" d="M28.8,25.4c0,0.2-0.1,0.4-0.1,0.6c0,0.2-0.1,0.4-0.1,0.6c0,0.3-0.1,0.6-0.2,0.9c-0.1,0.3-0.2,0.5-0.5,0.7
		c-0.1,0.1-0.1,0.2-0.2,0.2c-0.1,0.1-0.1,0.1-0.2,0.2c-0.1,0.1-0.2,0.2-0.4,0.3c-0.1,0.1-0.3,0.1-0.5,0.2c-0.2,0-0.4,0-0.6,0
		s-0.5,0-0.7,0c-0.5,0-0.8-0.2-1.1-0.5c-0.1-0.1-0.2-0.3-0.3-0.4c-0.1-0.2-0.2-0.3-0.4-0.5c0-0.2-0.1-0.3-0.1-0.5
		c-0.1-0.2-0.1-0.3-0.1-0.5c-0.1-0.3-0.1-0.6,0-0.9c0-0.3,0.1-0.6,0.3-0.8c0,0,0.1-0.1,0.1-0.1c0,0,0.1-0.1,0.1-0.1
		c0.2-0.2,0.4-0.4,0.7-0.6c0.3-0.2,0.5-0.3,0.9-0.4c0.1,0,0.2,0,0.3-0.1c0.1,0,0.3,0,0.4-0.1c0.1,0,0.3,0,0.4,0c0.1,0,0.3,0,0.4-0.1
		c0.5,0.2,0.8,0.5,1.2,0.8C28.4,24.6,28.7,24.9,28.8,25.4z"/>
</g>
</svg>
