<?xml version="1.0" encoding="UTF-8"?><svg xmlns="http://www.w3.org/2000/svg" xmlns:xlink="http://www.w3.org/1999/xlink" viewBox="0 0 200 200"><defs><style>.p{fill:url(#e);}.q{fill:url(#i);}.r{fill:url(#b);}.s{fill:none;}.t{fill:#a7a8a8;}.t,.u,.v,.w,.x,.y,.a`{mix-blend-mode:screen;}.t,.y,.aa{opacity:.67;}.u{opacity:.54;}.u,.ab,.ac{fill:#f97893;}.ad{fill:#f9d4b9;}.ae{fill:#e5486e;}.af{fill:#fff;}.ag{fill:#fff490;}.ah,.ai{fill:#f37e88;}.aj,.aa,.ak{fill:#d4886b;}.al{fill:#419979;}.am,.an{fill:#600000;}.ao{fill:#f3b888;}.ao,.an,.ap,.aq,.ar,.as,.aa,.at,.ak,.ac,.au,.av,.aw,.ax,.ay{mix-blend-mode:multiply;}.v{fill:url(#g);}.v,.w{opacity:.32;}.w{fill:url(#k);}.x{fill:url(#n);opacity:.72;}.y{fill:url(#c);}.an{opacity:.3;}.ap{fill:#a62700;opacity:.18;}.aq{fill:#834a2c;opacity:.47;}.ar{fill:#2e746a;opacity:.58;}.as{fill:#a97e88;opacity:.69;}.at{fill:#666;}.at,.ak,.aw,.ax{opacity:.5;}.ac{opacity:.6;}.au{fill:url(#f);}.av{fill:url(#j);}.aw{fill:url(#m);}.ax{fill:url(#l);}.a`{opacity:.26;}.b`{clip-path:url(#d);}.ba{clip-path:url(#h);}.bb{clip-path:url(#o);}.bc{isolation:isolate;}.ay{opacity:.65;}.bd{fill:#d3dde5;opacity:.3;}.ai{opacity:.25;}</style><linearGradient id="b" x1="71.91" y1="211.12" x2="109.03" y2="21" gradientTransform="matrix(1, 0, 0, 1, 0, 0)" gradientUnits="userSpaceOnUse"><stop offset=".33" stop-color="#f3b888"/><stop offset=".5" stop-color="#f3b98b"/><stop offset=".63" stop-color="#f4bf94"/><stop offset=".75" stop-color="#f6c8a4"/><stop offset=".86" stop-color="#f9d5bb"/><stop offset=".96" stop-color="#fde6d8"/><stop offset="1" stop-color="#ffefe8"/></linearGradient><linearGradient id="c" x1="72.53" y1="129" x2="125.68" y2="110.91" gradientTransform="matrix(1, 0, 0, 1, 0, 0)" gradientUnits="userSpaceOnUse"><stop offset=".19" stop-color="#000"/><stop offset=".29" stop-color="#181818"/><stop offset=".63" stop-color="#646565"/><stop offset=".88" stop-color="#949595"/><stop offset="1" stop-color="#a7a8a8"/></linearGradient><clipPath id="d"><path class="s" d="M92.15,67.37c.1-4.85-1.53-8.59-4.05-9.34-.94-.28-1.82-.09-2.1-.02-2.75,.63-2.62,3.33-6,6,0,0-.16,.12-4.81,2.83h0c.18,3.45,3.85,7.72,9.85,6.93,5.26-.7,7.12-6.4,7.12-6.4Z"/></clipPath><linearGradient id="e" x1="-1358.79" y1="170.15" x2="-1358.79" y2="153.77" gradientTransform="translate(-1284.62 83.68) rotate(172.45) scale(1 -1)" gradientUnits="userSpaceOnUse"><stop offset="0" stop-color="#ffcd00"/><stop offset="1" stop-color="#ff9000"/></linearGradient><linearGradient id="f" x1="-1359.72" y1="168.73" x2="-1359.72" y2="154.81" gradientTransform="translate(-1284.62 83.68) rotate(172.45) scale(1 -1)" gradientUnits="userSpaceOnUse"><stop offset="0" stop-color="#9d0000"/><stop offset=".16" stop-color="#820300"/><stop offset=".39" stop-color="#620800"/><stop offset=".61" stop-color="#4a0b00"/><stop offset=".82" stop-color="#3c0d00"/><stop offset="1" stop-color="#380e00"/></linearGradient><linearGradient id="g" x1="-1360.25" y1="174.83" x2="-1360.25" y2="163.19" gradientTransform="translate(-1284.62 83.68) rotate(172.45) scale(1 -1)" gradientUnits="userSpaceOnUse"><stop offset="0" stop-color="#000"/><stop offset=".48" stop-color="olive"/><stop offset=".84" stop-color="#dbdb00"/><stop offset="1" stop-color="#ff0"/></linearGradient><clipPath id="h"><path class="at" d="M103.19,66.54c-.3-4.96,.87-9.29,3.32-10.21,2.51-.94,5.34,2.1,9.49,3.66,.47,.18,2.03,.74,3.49,2.13h0s.71,7.81-6.63,9.18c-.9,.17-3.25,.64-5.76-.62-2.54-1.27-3.61-3.46-3.9-4.14Z"/></clipPath><linearGradient id="i" x1="-1398.51" y1="106.9" x2="-1398.51" y2="90.34" gradientTransform="translate(-1290.21 28.75) rotate(177.37) scale(1 -1)" xlink:href="#e"/><linearGradient id="j" x1="-1397.95" y1="105.58" x2="-1397.95" y2="91.66" gradientTransform="translate(-1290.21 28.75) rotate(177.37) scale(1 -1)" xlink:href="#f"/><linearGradient id="k" x1="-1396.74" y1="111.4" x2="-1396.74" y2="99.76" gradientTransform="translate(-1290.21 28.75) rotate(177.37) scale(1 -1)" xlink:href="#g"/><linearGradient id="l" x1="24.84" y1="119.2" x2="85.56" y2="119.2" gradientTransform="matrix(1, 0, 0, 1, 0, 0)" gradientUnits="userSpaceOnUse"><stop offset="0" stop-color="#f3b888"/><stop offset=".33" stop-color="#f6c8a4"/><stop offset="1" stop-color="#ffefe8"/></linearGradient><linearGradient id="m" x1="99.98" y1="122.93" x2="155.33" y2="122.93" gradientTransform="matrix(1, 0, 0, 1, 0, 0)" gradientUnits="userSpaceOnUse"><stop offset=".12" stop-color="#f3b888"/><stop offset=".63" stop-color="#fad9c1"/><stop offset="1" stop-color="#ffefe8"/></linearGradient><linearGradient id="n" x1="173.53" y1="143.49" x2="169.49" y2="151.94" gradientTransform="matrix(1, 0, 0, 1, 0, 0)" gradientUnits="userSpaceOnUse"><stop offset=".21" stop-color="#95f490"/><stop offset=".3" stop-color="#89e084"/><stop offset=".47" stop-color="#6baf67"/><stop offset=".71" stop-color="#3a5f38"/><stop offset=".98" stop-color="#000"/></linearGradient><clipPath id="o"><path class="s" d="M182.54,157.46c-.36-3.61-1.66-6.89-2.52-8.74-.46-1-1.36-1.75-2.43-2.01-10.11-2.46-21.19-1.11-25.37-.44-1.14,.18-2.13,.87-2.69,1.87-1.81,3.25-2.76,6.68-3.25,9.08-.37,1.82,.61,3.66,2.36,4.29,13.43,4.83,26.06,1.66,31.35-.14,1.65-.56,2.72-2.17,2.54-3.9Zm-31.16-9.76s17.35-3.39,26.47,.56c0,0-13.07,7.1-26.47-.56Z"/></clipPath></defs><g class="bc"><g id="a"><ellipse class="bd" cx="106.5" cy="160" rx="33.5" ry="5"/><g><path class="ae" d="M64.52,86.54s-5.16-4.32-8.03-4.36c-2.86-.04,1.54,4.74,4.56,4.81,0,0-6.29,.15-5.77,2.37,.52,2.22,6.82,0,6.82,0l4.6-1.53-2.18-1.29Z"/><path class="ac" d="M64.52,86.54s-5.16-4.32-8.03-4.36c-2.86-.04,1.54,4.74,4.56,4.81,0,0-6.29,.15-5.77,2.37,.52,2.22,6.82,0,6.82,0l4.6-1.53-2.18-1.29Z"/><path class="r" d="M65.91,61.4c1.25-1.47,1.79-3.42,1.56-5.33-.25-2.11-.26-6.86,.61-7.4,1.08-.67,4.95,1.86,6.41,2.78,.34,.21,.76,.22,1.12,.02,1.14-.63,3.42-1.81,8.07-2.57,6.17-1.01,8.07-4.48,10.49-7.54s8.03-.85,5.49,2.62c0,0,2.86-1.37,2.26,2.62,0,0,6.6,.82,10.33,2.46,.36,.16,.77,.12,1.08-.11,1.47-1.09,5.75-4.13,6.99-3.62,1.03,.43,1.07,4.37,1,6.74-.04,1.22,.32,2.41,1.03,3.4,.91,1.26,2.28,2.98,3.72,4.17,2.53,2.1,4.14,6.24,1.02,6.46,0,0,3.93,.81-.59,5.27,0,0,2.04,3.28-3.44,7.1-5.49,3.82,.65,9.31,.65,9.31,0,0,1.13,8.71,5.65,18.72,4.52,10.01,17.32,28.67,20.33,30.12,2.68,1.29,6.82,4.17,5.33,7.03-.35,.67-1.15,.99-1.88,.75-1.25-.4-3.34-1.27-4.79-2.94,0,0-12.53,.59-13.02-5.22,0,0-10.7,0-15.81-4.73,0,0-.48,12.69-7.15,19.9,0,0,2.22,.76,2.68,2.6,.21,.85-.33,1.72-1.19,1.89-1.7,.35-5.62,.69-13.86-.35,0,0-3.66,2.04-6.94,2.96,0,0,.19,.43,.36,.96,.2,.63-.2,1.28-.85,1.39-1.62,.26-4.65,.66-6.18,.24-2.15-.59-3.17-1.78-3.17-1.78l-13.07,.16s.86,1.4-4.79,1.24c-5.65-.16-24.1-1.18-30.72-2.74-6.62-1.56-11.08-5.81-14.15-21.52-3.07-15.71,1.18-26.95,3.71-27.65s4.52,2.42,4.52,2.42c0,0-3.93-9.68,3.87-23.88,7.8-14.2,9.74-10.11,12.69-4.41,0,0,2.69-4.63,9.79,9.95,0,0,3.66,.54,4.79-1.24,0,0-3.07-2.8,3.28-4.2,0,0,4.52-2.74,1.29-5.11s-.43-3.71-.43-3.71c0,0-2.42-1.67-1.61-2.58,.81-.91,3.01-.59,3.01-.59,0,0-6.51-2.15-5.86-6.89,.47-3.46,4.1-4.48,6.38-7.17Z"/><path class="y" d="M125.1,103.59c-.97-3.45-1.23-7.06-1.25-9.75-.02-2.51,.16-4.22,.16-4.22-.1-.56-.18-1.01-.23-1.32-3.78,.03-15.12,10.09-23.8,10.4-16.36,.58-31.77-8.05-29.1-4.95,4.63,5.38,0,9.14,0,9.14,4.95,1.94,4.31,6.97,4.31,6.97,3.47-.12,16.65,5.87,20.64,10.41,.06,.07,.1,.13,.16,.2,.02,.02,.04,.05,.06,.07,.13,.16,.28,.33,.39,.49v.07c.89,1.54,2.21,5.41,1.21,14.26-1.45,12.75-6.51,22.51-6.51,22.51,.89-.22,1.91,.65,1.91,.65,3.28-.91,6.94-2.96,6.94-2.96,3.26-1.53,5.93-3.59,8.14-5.91,8.94-9.4,10.09-23.08,10.09-23.08,2.1-.48,1.34-2.42,1.34-2.42,5.22-1.61,2.96-7.1,2.96-7.1,5.97-.97,4.46-6.78,2.58-13.45Z"/><path class="t" d="M96.75,67.89s-2.54-.98-3.63,1.39c-1.09,2.37,3.15,3.95,3.15,3.95,0,0-.1,3.83,2.13,3.59s2.15-3.89,2.15-3.89c0,0,2.22-.87,2.22-2.84,0-1.78-1.61-2.61-3.17-2.05-1.55,.56-2.85-.14-2.85-.14Z"/><path class="ah" d="M96.71,72.85c-.23,.94,3.52,.85,3.3-.11s-1.45-3.22-1.45-3.22l-.2,.1-1.65,3.23Z"/><path class="as" d="M96.71,72.85c-.23,.94,3.52,.85,3.3-.11s-1.45-3.22-1.45-3.22l-.2,.1-1.65,3.23Z"/><g><path class="at" d="M118.92,66.28s-1.21,5.53-6.7,5.96-7.92-3.79-7.92-3.79l14.62-2.16Z"/><path class="at" d="M91.38,69.04s-1.07,4.46-6.56,5.6-8.78-5.01-8.78-5.01l15.34-.59Z"/><path d="M94.15,67.86c-.87-.71-1.41-1.72-1.54-2.81-.15-1.31-1.25-5.16-3.8-6.99-.46-.33-1.46-1.05-2.82-1.06-1.22,0-1.93,.57-5,3-3.81,3.01-3.93,3.08-5,4-1.42,1.22-2.58,2.28-3.38,3.03,0,0,1.67,1.22,3.09,2.17,6.55,4.38,14.41,.71,15.35,.32,1.41-.59,2.48-1.25,3.1-1.66Z"/><path d="M101.15,67.17c.3-1.49,.83-3.67,1.85-6.17,1.41-3.47,2.24-5.5,4-6,.76-.22,2.51,.52,6,2,1.36,.58,2.57,1.13,4,2,2.05,1.26,2.65,2.02,3,2.61,.56,.94,.74,1.87,.8,2.5,0,0-.63,1.06-1.88,2.18-1.25,1.11-13.06,3.67-14.62,2.16-1.57-1.5-3.14-1.27-3.14-1.27Z"/><g class="b`"><path class="p" d="M92.15,67.37c.44-3.98-1.51-10.85-8.27-9.98-8.86,1.14-8.7,9.44-8.7,9.44,.18,3.45,3.85,7.72,9.85,6.93,5.26-.7,7.12-6.4,7.12-6.4Z"/><path class="aq" d="M93.89,69.53s-.66-12.41-10.37-11.21c-9.87,1.21-10.78,20.86-10.78,20.86,0,0-4.07-23.7-.75-29.82,3.32-6.12,4.64-15.41,11.2-12.41s11.16,15.56,11.16,15.56l-.45,17.02Z"/><path class="au" d="M77.63,66.29c.51,3.81,4,6.49,7.82,5.99,3.81-.51,6.49-4,5.99-7.82-.51-3.81-4-6.49-7.82-5.99-3.81,.51-6.49,4-5.99,7.82Z"/><path class="v" d="M80.24,73.25c.42,3.19,3.35,5.43,6.54,5.01,3.19-.42,5.43-3.35,5.01-6.54-.42-3.19-3.35-5.43-6.54-5.01s-5.43,3.35-5.01,6.54Z"/></g><g><path class="at" d="M103.19,66.54c-.3-4.96,.87-9.29,3.32-10.21,2.51-.94,5.34,2.1,9.49,3.66,.47,.18,2.03,.74,3.49,2.13h0s.71,7.81-6.63,9.18c-.9,.17-3.25,.64-5.76-.62-2.54-1.27-3.61-3.46-3.9-4.14Z"/><g class="ba"><path class="q" d="M103.19,66.54s-1.4-11.16,7.59-11.6c7.1-.35,8.71,7.19,8.71,7.19,0,0,.71,7.81-6.63,9.18-7.34,1.37-9.67-4.76-9.67-4.76Z"/><g><path class="av" d="M104.04,63.57c.16,3.84,3.29,6.8,6.98,6.62,3.69-.18,6.56-3.45,6.4-7.29-.16-3.84-3.29-6.8-6.98-6.62-3.69,.18-6.56,3.45-6.4,7.29Z"/><path class="w" d="M104.24,70.52c.13,3.21,2.75,5.69,5.84,5.53,3.09-.15,5.48-2.88,5.35-6.09s-2.75-5.69-5.84-5.53c-3.09,.15-5.48,2.88-5.35,6.09Z"/></g><path class="aq" d="M121.93,68.06s-1.6-11.93-11.16-12.21c-9.56-.28-9.15,19.49-9.15,19.49,0,0-4.84-23.56-1.14-29.38,3.7-5.82,5.75-14.97,11.78-11.43,6.03,3.54,9.37,16.43,9.37,16.43l.3,17.09Z"/><path class="af" d="M107.5,59.33c-.93-.18-2.81,1.88-2.64,3.31,.17,1.43,5.69-2.72,2.64-3.31Z"/><path class="af" d="M109.05,60.36c-.29-.33-1.4,2.12-.89,2.43,.5,.3,1.18-2.1,.89-2.43Z"/></g></g><path class="af" d="M107.5,59.33c-.93-.18-2.81,1.88-2.64,3.31,.17,1.43,5.69-2.72,2.64-3.31Z"/><path class="af" d="M109.05,60.36c-.29-.33-1.4,2.12-.89,2.43,.5,.3,1.18-2.1,.89-2.43Z"/><path class="af" d="M81.02,61.39c-.98-.1-2.75,2.12-2.45,3.53s5.66-3.2,2.45-3.53Z"/><path class="af" d="M82.72,62.28c-.33-.3-1.26,2.24-.71,2.5,.55,.26,1.04-2.2,.71-2.5Z"/><g><path d="M96.66,72.37c.59-.88,1.06-1.87,1.36-2.89,.09-.29,.41-.37,.61-.14,.74,.85,1.29,1.87,1.57,2.95,.05,.18-.01,.37-.19,.44-.16,.06-.39-.02-.44-.19-.22-.84-.6-1.62-1.12-2.32-.33,.91-.73,1.78-1.27,2.58-.1,.15-.34,.15-.48,.05-.15-.13-.15-.32-.05-.48Z"/><path class="ad" d="M97.5,67.66c.4,.12,.83,.07,1.19-.13,.24-.13,.53-.18,.79,.07,.47,.46-.5,1.5-.93,1.91-.11,.11-.28,.13-.42,.05-.52-.32-1.74-1.14-1.38-1.67,.2-.29,.49-.31,.75-.23Z"/><path class="ao" d="M97.5,67.66c.4,.12,.83,.07,1.19-.13,.24-.13,.53-.18,.79,.07,.47,.46-.5,1.5-.93,1.91-.11,.11-.28,.13-.42,.05-.52-.32-1.74-1.14-1.38-1.67,.2-.29,.49-.31,.75-.23Z"/><path class="ao" d="M98.56,69.51c-.11,.11-.28,.13-.42,.05-.44-.27-1.38-.9-1.44-1.41,.25,.54,2.24,.96,2.9-.13-.09,.51-.72,1.17-1.04,1.49Z"/></g></g><path class="t" d="M95.54,57.3c2.25-3.52-5.43-7.75-7.1-3.93-1.67,3.82,5.49,6.46,7.1,3.93Z"/><path class="t" d="M99.19,57.31c-2.51-.86-.37-7.92,3.39-6.47,3.77,1.45,1.18,8.03-3.39,6.47Z"/><path class="ap" d="M59.48,92.43c2.02-.89,8.15,1.86,11.62,5.97,3.47,4.12,23.72,23.64,31.23,22.51,5.97-.9,17.18-19.49,21.53-27.07-.02-2.51,.16-4.22,.16-4.22-.22-1.17-.31-1.85-.31-1.85,0,0-5.32-4.77-1.6-8.51,0,0-6.88,6.95-20.43,9.37-13.55,2.42-34.2-4.27-38.16-7.1,.23,.25,.53,.52,.91,.81,3.23,2.37-1.29,5.11-1.29,5.11-6.35,1.4-3.28,4.2-3.28,4.2-.3,.47-.79,.78-1.33,.98,.23,.03,.54-.01,.95-.2Z"/><path class="ax" d="M77.39,155.53c.16-1.21,.81-.85,.81-.85,0,0-11.7-6.49-16.06-22.55,0,0-3.15-4.28-2.58-7.58s2.42-3.79,2.42-3.79c0,0-5.73-4.12,.48-6.94,0,0-4.36,1.13-7.83,.16,0,0-1.37,5-5.49,6.46,0,0,10.66,2.57,11.3,16.3,.65,13.88-27.19,12.83-28.48-3.07s20.98-27.6,20.98-27.6c0,0-1.29-1.86-.65-3.15,.65-1.29,2.34-.89,2.34-.89,0,0-3.55-3.71-2.42-6.21,1.13-2.5,2.85-2.93,2.85-2.93-7.1-14.58-9.79-9.95-9.79-9.95-2.96-5.7-4.9-9.79-12.69,4.41-7.8,14.2-3.87,23.88-3.87,23.88,0,0-1.99-3.12-4.52-2.42-2.53,.7-6.78,11.94-3.71,27.65,3.07,15.71,7.53,19.96,14.15,21.52,6.62,1.56,25.07,2.58,30.72,2.74,5.65,.16,4.79-1.24,4.79-1.24l13.07-.16s-5.97-2.58-5.81-3.79Z"/><path class="ap" d="M97.88,139.23c1.21-5.97,3.15-17.91,3.15-17.91l-2.5,.83-2.82-1.96s3.39,2.42,1.94,15.17c-1.45,12.75-6.51,22.51-6.51,22.51,.89-.22,1.91,.65,1.91,.65,3.28-.91,6.94-2.96,6.94-2.96,3.26-1.53,5.93-3.59,8.14-5.91-6.27,2.99-11.32-5.07-10.24-10.41Z"/><path class="aw" d="M149.69,136.62c-3.01-1.45-15.81-20.12-20.33-30.12-2.47-5.46-3.92-10.52-4.73-14.01-.27-1.14-.47-2.11-.61-2.87,0,0-.18,1.71-.16,4.22,.02,2.69,.28,6.3,1.25,9.75,1.88,6.67,3.39,12.48-2.58,13.45,0,0,2.26,5.49-2.96,7.1,0,0,.75,1.94-1.34,2.42,0,0-1.15,13.68-10.09,23.08-2.21,2.32-4.88,4.39-8.14,5.91,8.26,1.04,12.18,.69,13.87,.35,.77-.16,1.35-.89,1.22-1.67-.32-2-2.72-2.82-2.72-2.82,1.38-1.49,2.49-3.22,3.39-5.02,3.45-6.9,3.76-14.89,3.76-14.89,5.11,4.73,15.81,4.73,15.81,4.73,.48,5.81,13.02,5.22,13.02,5.22,1.45,1.67,3.54,2.54,4.79,2.94,.73,.23,1.54-.08,1.89-.76,1.49-2.86-2.65-5.73-5.33-7.02Z"/><path class="ap" d="M130.91,110.42c.87,1.37,1.65,2.53,2.37,3.55-1.58-2.72-2.95-5.3-3.93-7.48-2.47-5.46-3.92-10.52-4.73-14.01-.27-1.14-.47-2.11-.61-2.87,0,0-.18,1.71-.16,4.22,.02,2.69,.28,6.3,1.25,9.75,1.88,6.67,3.39,12.48-2.58,13.45,0,0,2.26,5.49-2.96,7.1,0,0,.75,1.94-1.34,2.42,0,0-1.15,13.68-10.09,23.08-2.21,2.32-4.88,4.39-8.14,5.91,8.26,1.04,12.18,.69,13.87,.35,.77-.16,1.35-.89,1.22-1.67-.32-2-2.72-2.82-2.72-2.82,1.38-1.49,2.49-3.22,3.39-5.02,3.45-6.9,3.76-14.89,3.76-14.89,5.11,4.73,15.81,4.73,15.81,4.73-8.93-4.3-10.38-35.28-4.41-25.82Z"/><path class="ak" d="M67.92,84.06s22.05,8.55,34.27,6.51c12.21-2.04,18.18-9.36,18.18-9.36,0,0-5.43,10.22-18.99,11.46-13.56,1.24-33.46-8.61-33.46-8.61Z"/><path class="ap" d="M59.56,124.54c.56-3.31,2.42-3.79,2.42-3.79,0,0-5.73-4.12,.48-6.94,0,0-4.36,1.13-7.83,.16,0,0-1.37,5-5.49,6.46,4.42,.88,7.77,2.59,10.34,4.75,0-.22,.03-.43,.06-.64Z"/><path class="ap" d="M68.24,157c-3.34-2.1-6.35,2.96-6.35,2.96,4.79-5.65,8.23-.48,8.23-.48l13.07-.16s-5.97-2.58-5.81-3.79,.81-.85,.81-.85c0,0-4.69-2.62-9.24-8.6,1.58,6.85-.71,10.93-.71,10.93Z"/><path class="ap" d="M34.62,157.97c1.79,.42,4.44,.8,7.47,1.14-3.06-1.63-11.72-15.5-10.16-27.71,0-.04,.02-.08,.02-.13,.93-14.67,20.98-25.21,20.98-25.21,0,0-13.04,2.61-19.18,13.14,0,0-6.24-4.32-8.01,8.54-1.77,12.84-4.71,11.53-5.77,5.76,.14,.97,.3,1.95,.5,2.96,3.07,15.71,7.53,19.96,14.15,21.52Z"/><path class="at" d="M91.13,157.87s-3.09-.81-4.46,.65c0,0,2.43-3.3,4.46-.65Z"/><path class="ab" d="M63.91,83.79l1.24-.76s18.67,11.25,35.06,9.23c16.39-2.02,21.27-12.25,21.27-12.25l.71,.14c.57,.11,.95,.65,.85,1.22-.16,1.01-.41,2.54-.56,3.39-.16,.91,.92,1.77,1.64,2.23,.37,.24,.56,.67,.48,1.11-.29,1.43-1.03,4.61-2.36,6.91-1.78,3.07-15.65,23.8-21.1,24.49s-26.43-18.03-29.73-22.23c-3.31-4.2-6.89-9.55-8.28-9.82l-.67-1.32s2.26-.24,1.45-2.34Z"/><path class="ac" d="M63.91,83.79s9,3.36,11.8,8.98l-11.8-8.98Z"/><path class="ac" d="M101.15,119.49c5.45-.69,19.32-21.42,21.1-24.49,1.34-2.31,2.08-5.48,2.36-6.91,.09-.44-.1-.87-.48-1.11-.72-.46-1.81-1.31-1.64-2.23,.15-.85,.4-2.38,.56-3.39,.09-.57-.29-1.11-.85-1.22l-.71-.14s-4.88,10.24-21.27,12.25c-16.39,2.02-35.06-9.23-35.06-9.23,0,0,16.55,11.89,32.95,11.09,16.4-.81,24.15-11.94,24.15-11.94,0,0-3.99,7.75-13.13,14.44-9.14,6.7-19.47,5.49-31.98-2.74,0,0,10.73,10.73,22.11,9.68,11.38-1.05,19.39-15.47,21.11-17.3,1.72-1.82,2.53-.02,2.37,3.36-.16,3.37-10.05,23.46-21.48,25.64-6.36,1.21-16.68-6.02-24.58-12.67,7.55,7,20.39,17.42,24.48,16.9Z"/><path class="u" d="M109.12,96.62c3.16-2.31,5.68-4.74,7.66-6.94-11.73,12.18-31.61,8.51-38.15,5.14,11.84,7.36,21.71,8.24,30.49,1.81Z"/><g class="ay"><path class="am" d="M103.76,103.96c-.12-.15-.37-.2-.53-.06-.49,.43-.63,1.02-.71,1.65-.12,.83-.22,1.67-.31,2.51-.2,1.67-.37,3.35-.52,5.03,0,.03,.02,.05,.03,.08-.04,.08-.05,.18,0,.29,.11,.23,.25,.37,.49,.47,.14,.06,.36,.02,.44-.12,.46-.81,.58-1.7,.55-2.62-.01-.45-.15-.99,.1-1.4,.21-.34,.6-.55,.9-.81,.66-.58,.82-1.31,.66-2.15-.19-1-.45-2.06-1.11-2.86Z"/><path class="am" d="M96.89,105.1c-.22,.09-.29,.34-.22,.55,.06,.17,.79,2.29,.6,2.32-.2,.03-.57-.8-.65-.95-.23-.4-.46-.81-.68-1.21-.26-.46-.97-.19-.77,.33,.14,.37,.28,.74,.42,1.11,.06,.16,.12,.32,.18,.47l.12,.32s-.07-.02-.1-.03c-.25-.03-.6-.42-.79-.58-.29-.25-.58-.51-.85-.78-.06-.06-.12-.09-.19-.11-.19-.09-.38-.01-.49,.16-.02,.02-.04,.05-.05,.07-.01,.02-.02,.05-.03,.07-.01,.08,.01,.17,.06,.25,0,.02,0,.03,.01,.05,.45,.62,.94,1.28,1.58,1.71,.3,.2,.62,.33,.97,.41,.2,.04,.39,.04,.52,.22,.12,.17,.16,.45,.21,.64,.29,.97,.63,1.94,1,2.88,.23,.57,.6,2,1.49,1.58,.17-.08,.27-.25,.25-.44-.12-1.02-.63-1.92-1.04-2.85-.21-.47-.42-.96-.57-1.45-.05-.16-.12-.39-.06-.55,.07-.17,.24-.24,.38-.35,.75-.57,.34-1.5,.09-2.24-.19-.56-.54-1.97-1.41-1.62Z"/></g><path class="u" d="M76.67,102.59c7.9,6.65,18.21,13.88,24.58,12.67,8.26-1.57,15.71-12.49,19.27-19.7-4.22,5.55-9.75,10.89-16.23,12.71-15.29,4.3-32.04-10.05-32.1-10.1,1,1.1,2.57,2.65,4.48,4.43Z"/><g><path class="al" d="M152.22,146.26c4.19-.67,15.27-2.01,25.37,.44,1.07,.26,1.96,1.01,2.43,2.01,.86,1.85,2.16,5.13,2.52,8.74,.17,1.73-.9,3.34-2.54,3.9-5.29,1.8-17.92,4.97-31.35,.14-1.75-.63-2.73-2.47-2.36-4.29,.48-2.4,1.43-5.83,3.25-9.08,.56-1,1.55-1.69,2.69-1.87Z"/><path class="an" d="M151.38,147.7s17.35-3.39,26.47,.56c0,0-13.07,7.1-26.47-.56Z"/><path class="ar" d="M148.65,161.5c13.43,4.83,26.06,1.66,31.35-.14-1.34-3.7-5.83-10.11-5.83-10.11-10.33,4.9-24.64-1.57-24.62-3.12-1.81,3.25-2.76,6.68-3.25,9.08-.37,1.82,.61,3.66,2.36,4.29Z"/><path class="x" d="M182.54,157.46c-.36-3.61-1.66-6.89-2.52-8.74-.46-1-1.36-1.75-2.43-2.01-7.68-1.87-15.92-1.54-21.27-.98,1.5,.19,3.35,.45,5.33,.74,5.38-.32,11.75-.13,16.19,1.79,0,0-.9,.49-2.47,1.07,.65,.23,1.19,.47,1.58,.71,0,0,4.11,4.43,5.53,8.46,.06-.34,.09-.68,.06-1.03Z"/><g class="a`"><g class="bb"><circle class="ag" cx="154.33" cy="162.26" r="2.95"/><path class="ag" d="M166.05,155.27c0,1.63-1.32,2.95-2.95,2.95s-2.95-1.32-2.95-2.95,1.32-2.95,2.95-2.95,2.95,1.32,2.95,2.95Z"/><circle class="ag" cx="171.6" cy="159.79" r="2.95"/><circle class="ag" cx="172.73" cy="152.32" r="2.95"/><circle class="ag" cx="180" cy="156.84" r="2.95"/><circle class="ag" cx="179.35" cy="148.31" r="2.95"/><circle class="ag" cx="154.55" cy="155.27" r="2.95"/><path class="ag" d="M166.86,162.96c0,1.63-1.32,2.95-2.95,2.95s-2.95-1.32-2.95-2.95,1.32-2.95,2.95-2.95,2.95,1.32,2.95,2.95Z"/><circle class="ag" cx="146.48" cy="158.21" r="2.95"/><path class="ag" d="M151.38,150.09c0,1.63-1.32,2.95-2.95,2.95s-2.95-1.32-2.95-2.95,1.32-2.95,2.95-2.95,2.95,1.32,2.95,2.95Z"/><circle class="ag" cx="157.27" cy="145.63" r="2.95"/><circle class="ag" cx="167.56" cy="145.86" r="2.95"/></g></g><path class="an" d="M175.57,149.26c-6.97-1.95-16.81-.9-21.5-.22,9.06,3.94,17.57,1.71,21.5,.22Z"/></g><path class="ai" d="M71.43,55.53l1.42-1.03c.24-.18,.24-.54,0-.71l-1.57-1.11c-.3-.21-.72,.02-.69,.39l.16,2.15c.02,.34,.42,.52,.69,.32Z"/><path class="ai" d="M117.86,52.23l-1.35-1.12c-.23-.19-.2-.55,.05-.71l1.64-1.01c.31-.19,.71,.07,.66,.43l-.3,2.13c-.05,.34-.45,.5-.71,.28Z"/><path class="at" d="M100.22,75.35s-.34,1.85-2.51,2.32c-2.16,.47,2.98,3.76,2.51-2.32Z"/><path class="aj" d="M105.5,80.13c-.38-.15-.54,.46-.17,.61,.93,.36,1.31,1.49,.99,2.39-.33,.92-1.4,1.82-2.42,1.56-.4-.1-.55,.48-.17,.61-.08-.03-.05,.05-.09,.14-.04,.09-.12,.17-.19,.23-.13,.13-.29,.23-.46,.29-.37,.14-.74,.13-1.1-.01-.24-.1-.44,.18-.39,.39,.1,.44-.15,.96-.62,1.08-.43,.11-.85-.14-1.04-.53-.18-.37-.72-.05-.55,.32,.32,.66,1.14,1.03,1.84,.79,.59-.2,.94-.75,.99-1.34,.57,.09,1.17-.05,1.63-.42,.24-.19,.49-.55,.55-.89,1.17-.03,2.25-.99,2.63-2.06,.44-1.26-.18-2.69-1.43-3.16Z"/><path class="aj" d="M117.23,124.96c.84-.88,1.37-2.04,1.5-3.24,.28-2.45-1.28-4.79-3.56-5.66-.38-.15-.55,.47-.17,.61,1.81,.69,3.13,2.52,3.13,4.47,0,.96-.3,1.91-.82,2.71-.26,.4-.59,.76-.96,1.07-.23,.19-.97,.75-1.25,.36-.19-.27-.72-.11-.58,.24,.27,.68,.09,1.52-.52,1.96-.61,.43-1.48,.35-2.02-.14-.19-.17-.56-.07-.54,.22,.13,1.92-1.91,3.22-3.58,2.23-.35-.21-.67,.34-.32,.55,.96,.57,2.22,.59,3.17-.03,.76-.49,1.22-1.32,1.32-2.21,.71,.37,1.6,.38,2.28-.08,.65-.44,.99-1.23,.95-2.01,.7,.06,1.52-.6,1.95-1.05Z"/><path class="aj" d="M134.14,131.32c-.37,.73-1.32,.93-2.04,.63-.86-.36-1.35-1.27-1.59-2.12-.04-.16-.23-.28-.39-.22-.97,.34-2.12,.38-3-.24-.76-.53-1.14-1.52-.83-2.41,.13-.38-.48-.55-.61-.17-.38,1.09,.09,2.31,.97,3.01,.95,.74,2.24,.82,3.36,.5,.35,1,.98,1.96,2.03,2.3,.97,.32,2.17-.02,2.65-.96,.19-.36-.36-.68-.55-.32Z"/><path class="aj" d="M74.44,139.48c-3.11,.39-6.34-1.25-7.72-4.09-.71-1.46-.91-3.17-.59-4.76,.16-.8,.44-1.58,.85-2.29,.17-.29,.39-.57,.34-.92-.04-.31-.28-.51-.58-.58-.34-.08-.71,.02-.99-.23-.25-.23-.34-.62-.31-.94,.09-.91,1.14-1.36,1.89-1.62,.29-.1,.31-.52,0-.61-1.06-.29-1.84-1.38-1.68-2.49,.16-1.11,1.22-1.93,2.31-1.92,.41,0,.41-.63,0-.63-1.41-.02-2.74,1.05-2.94,2.46-.16,1.15,.46,2.28,1.42,2.86-.52,.24-1.01,.56-1.33,1.05-.37,.55-.41,1.27-.12,1.86,.14,.28,.36,.53,.65,.66,.13,.06,.27,.1,.41,.11,.13,.02,.52-.03,.59,.06,.09,.12-.23,.55-.29,.66-.1,.18-.19,.36-.28,.55-.18,.4-.33,.81-.45,1.24-.92,3.39,.41,7.05,3.38,8.95,1.59,1.02,3.53,1.49,5.41,1.25,.4-.05,.4-.68,0-.63Z"/><path class="aj" d="M38.5,138.35c-.33,.14-.65,.32-.85,.61-.27,.39-.28,.88-.08,1.31,.22,.49,.66,.81,1.1,1.09,.24,.15,.48,.3,.74,.4-.84,.71-1.36,1.81-1.26,2.93,.12,1.34,1.01,2.47,2.24,2.97,.38,.15,.54-.46,.17-.61-.99-.4-1.73-1.4-1.78-2.47-.06-1.12,.59-2.17,1.57-2.69,.28-.15,.15-.59-.16-.59-.61,0-1.45-.54-1.85-1-.21-.25-.37-.62-.19-.93,.15-.27,.52-.41,.79-.52,.16-.07,.26-.21,.22-.39-.39-1.67,.76-3.32,2.47-3.49,.4-.04,.41-.67,0-.63-2.03,.2-3.42,2.02-3.12,4.01Z"/><path class="aj" d="M34.26,103.74c.34,.74,1.17,1.07,1.94,.96-.43,.98-.52,2.12-.14,3.14,.45,1.22,1.44,2.15,2.67,2.56,.39,.13,.55-.48,.17-.61-2.32-.78-3.15-3.58-1.74-5.54,.18-.25-.18-.62-.43-.43-.54,.41-1.45,.39-1.84-.23-.41-.64,.14-1.58,.88-1.57,.35,0,.44-.55,.08-.62-1.29-.25-2.81-.62-3.15-2.09-.35-1.52,.63-2.91,1.46-4.09,.23-.33-.31-.65-.55-.32-.95,1.36-1.97,2.96-1.49,4.69,.35,1.29,1.44,1.86,2.62,2.19-.54,.47-.8,1.27-.49,1.95Z"/><path class="aj" d="M121.44,133.59c.05,.65,.25,1.28,.59,1.84,.21,.35,.76,.03,.55-.32-.32-.53-.5-1.14-.51-1.76,0-.31,.04-.6,.1-.9,.06-.31,.09-.63-.1-.91-.22-.34-.77-.02-.55,.32,.14,.21,0,.53-.03,.76-.05,.32-.07,.65-.04,.97Z"/><path class="aj" d="M124.07,135.23c.14-.08,.21-.29,.11-.43-.49-.72-.83-1.56-.95-2.43-.02-.17-.13-.32-.32-.32-.15,0-.34,.15-.32,.32,.13,.98,.47,1.92,1.03,2.75,.1,.14,.28,.2,.43,.11Z"/><path class="aj" d="M94.27,145.88c-.15-.09-.35-.03-.43,.11-.09,.15-.04,.35,.11,.43,.8,.46,1.55,1,2.23,1.62,.13,.11,.32,.12,.45,0,.12-.12,.13-.33,0-.45-.72-.66-1.51-1.24-2.36-1.72Z"/><path class="aj" d="M94.61,144.95c-.4-.09-.56,.52-.17,.61,1.09,.25,2.09,.78,2.92,1.53,.3,.27,.75-.17,.45-.45-.9-.83-2-1.42-3.2-1.69Z"/><path class="aj" d="M33.26,90.58c.16,.05,.35-.06,.39-.22,.04-.17-.05-.34-.22-.39-.09-.03-.19-.06-.28-.09-.03,0-.05-.02-.08-.03,0,0-.07-.03-.03-.01-.05-.02-.09-.04-.14-.06-.18-.09-.36-.19-.53-.3-.04-.03-.08-.06-.12-.09l-.05-.04c-.1-.08-.18-.15-.25-.21-.15-.14-.3-.3-.43-.46-.11-.13-.34-.11-.45,0-.13,.13-.11,.31,0,.45,.56,.7,1.33,1.21,2.18,1.46Z"/><path class="aj" d="M33.6,89.62c.15,.08,.34,.04,.43-.11,.08-.14,.04-.35-.11-.43-.91-.47-1.6-1.22-2.01-2.17-.07-.16-.3-.19-.43-.11-.16,.09-.18,.27-.11,.43,.44,1.02,1.25,1.88,2.24,2.39Z"/><path class="aj" d="M67.85,60.2c.16,.06,.34,.02,.42-.14,.07-.14,.02-.36-.14-.42-1.15-.44-2.02-1.4-2.33-2.59-.1-.39-.7-.19-.6,.2,.35,1.33,1.36,2.46,2.65,2.95Z"/><path class="aj" d="M65.32,60.21c-.08,.16,0,.34,.14,.42,.82,.48,1.79,.69,2.73,.61,.4-.03,.36-.66-.04-.63-.84,.07-1.68-.12-2.41-.55-.15-.09-.35,0-.42,.14Z"/><path class="aj" d="M20.71,123.9c-.81-.52-1.79-.69-2.73-.53-.17,.03-.26,.24-.22,.39,.05,.18,.22,.25,.39,.22,.77-.14,1.58,.04,2.24,.46,.34,.22,.66-.33,.32-.55Z"/><path class="aa" d="M88.17,158.55c-.39-.11-.56,.5-.17,.61,.93,.27,1.59,1.11,1.73,2.04,.21-.02,.43-.03,.64-.06-.16-1.19-1.04-2.26-2.2-2.6Z"/><path class="aa" d="M91.13,158.38c-.34-.22-.66,.32-.32,.55,.67,.44,1.08,1.23,1.11,2.02,.22-.03,.44-.07,.62-.1-.07-.98-.58-1.92-1.42-2.47Z"/><path class="aa" d="M65.64,158.69c-.14-.1-.35-.02-.43,.11-.09,.16-.03,.33,.11,.43,.41,.29,.8,.6,1.14,.99,.13,.15,.24,.32,.32,.49,.24,0,.46-.02,.67-.03-.3-.85-1.09-1.49-1.81-2Z"/><path class="aa" d="M68.02,158.37c-.16-.07-.34-.04-.43,.11-.08,.14-.04,.36,.11,.43,.66,.3,1.15,.88,1.38,1.55,.24-.06,.44-.13,.59-.21-.27-.82-.85-1.53-1.65-1.89Z"/><path class="aa" d="M111.39,153.49c-.35-.22-.66,.33-.32,.55,.73,.46,1.26,1.22,1.48,2.06,.22-.02,.43-.05,.62-.08-.25-1.02-.87-1.95-1.78-2.52Z"/><path class="aa" d="M150.51,140.82c.47,.54,.82,1.23,.83,1.97,0,.27-.06,.55-.16,.8,.19,.1,.38,.19,.56,.27,.13-.32,.22-.66,.23-1.01,.02-.92-.42-1.79-1.01-2.47-.27-.31-.71,.14-.45,.45Z"/><path class="aa" d="M153.85,141.59c.36,.93,.33,1.94-.01,2.85,.28-.04,.55-.14,.77-.32,.22-.89,.19-1.84-.14-2.69-.14-.38-.76-.21-.61,.17Z"/><g><path class="aj" d="M50.21,73.35c5.1-1.84,10.42-3.03,15.81-3.57,.52-.05,.37-.84-.14-.79-5.47,.54-10.85,1.77-16.01,3.63-.49,.18-.14,.9,.34,.73h0Z"/><path class="aj" d="M56.93,82.18c2.65-3.89,6.47-6.87,10.88-8.52,.49-.18,.14-.91-.34-.73-4.54,1.69-8.48,4.79-11.21,8.79-.29,.43,.37,.88,.67,.45h0Z"/><path class="aj" d="M62.21,85.64c2.05-3.19,4.58-6.03,7.51-8.43,.4-.33-.12-.94-.52-.61-2.98,2.44-5.57,5.35-7.65,8.59-.28,.44,.39,.89,.67,.45h0Z"/><path class="aj" d="M125.38,66.01c3.15,.49,6.23,1.37,9.16,2.65,1.45,.63,2.86,1.36,4.22,2.17,.65,.39,1.3,.8,1.92,1.23,.72,.49,1.47,.98,1.83,1.81,.21,.47,.9,.06,.69-.41-.33-.77-.97-1.28-1.63-1.76-.69-.49-1.4-.96-2.13-1.4-1.4-.85-2.86-1.61-4.36-2.28-3.03-1.34-6.23-2.28-9.51-2.79-.51-.08-.7,.7-.19,.78h0Z"/><path class="aj" d="M121.88,70.07c4.73,2.75,8.53,6.9,10.89,11.84,.22,.47,.91,.05,.69-.41-2.42-5.06-6.35-9.32-11.2-12.14-.45-.26-.83,.45-.38,.71h0Z"/><path class="aj" d="M119.08,73.94c2.49,2.94,5.22,6.29,4.89,10.39-.04,.52,.76,.5,.81-.02,.35-4.32-2.52-7.86-5.14-10.95-.33-.4-.89,.19-.56,.58h0Z"/></g></g></g></g></svg>