<?xml version="1.0" encoding="UTF-8"?><svg xmlns="http://www.w3.org/2000/svg" xmlns:xlink="http://www.w3.org/1999/xlink" viewBox="0 0 200 200"><defs><style>.l{fill:url(#d);}.m{fill:url(#h);}.n{fill:url(#k);}.o{fill:url(#b);}.p{fill:none;}.q{fill:#f9d4b9;}.r,.s{fill:#f3b888;}.t{fill:#fff;}.u,.v,.w,.x,.y{fill:#a62700;}.a`{fill:#d4886b;}.aa{fill:#381905;}.s,.v,.w,.ab,.x,.y,.ac,.ad{mix-blend-mode:multiply;}.ae{fill:url(#f);}.ae,.af{mix-blend-mode:screen;opacity:.32;}.af{fill:url(#j);}.v{opacity:.18;}.w,.ab{opacity:.47;}.ab{fill:#834a2c;}.x{opacity:.43;}.y{opacity:.5;}.ac{fill:url(#e);}.ad{fill:url(#i);}.ag{clip-path:url(#c);}.ah{clip-path:url(#g);}.ai{isolation:isolate;}.aj{fill:#d3dde5;opacity:.3;}.ak{fill:#f37e88;opacity:.42;}</style><linearGradient id="b" x1="81.6" y1="157.29" x2="130.98" y2="56.45" gradientTransform="matrix(1, 0, 0, 1, 0, 0)" gradientUnits="userSpaceOnUse"><stop offset=".12" stop-color="#f3b888"/><stop offset=".63" stop-color="#fad9c1"/><stop offset="1" stop-color="#ffefe8"/></linearGradient><clipPath id="c"><path class="p" d="M96.8,74.06c-.92-3.71,.07-10.46,6.57-10.48,8.53-.03,9.42,7.85,9.42,7.85,.27,3.29-2.68,7.79-8.45,7.79-5.06,0-7.54-5.16-7.54-5.16Z"/></clipPath><linearGradient id="d" x1="104.66" y1="79.22" x2="104.66" y2="63.58" gradientTransform="matrix(1, 0, 0, 1, 0, 0)" gradientUnits="userSpaceOnUse"><stop offset="0" stop-color="#ffcd00"/><stop offset="1" stop-color="#ff9000"/></linearGradient><linearGradient id="e" x1="103.77" y1="77.86" x2="103.77" y2="64.57" gradientTransform="matrix(1, 0, 0, 1, 0, 0)" gradientUnits="userSpaceOnUse"><stop offset="0" stop-color="#9d0000"/><stop offset=".16" stop-color="#820300"/><stop offset=".39" stop-color="#620800"/><stop offset=".61" stop-color="#4a0b00"/><stop offset=".82" stop-color="#3c0d00"/><stop offset="1" stop-color="#380e00"/></linearGradient><linearGradient id="f" x1="103.26" y1="83.69" x2="103.26" y2="72.57" gradientTransform="matrix(1, 0, 0, 1, 0, 0)" gradientUnits="userSpaceOnUse"><stop offset="0" stop-color="#000"/><stop offset=".48" stop-color="olive"/><stop offset=".84" stop-color="#dbdb00"/><stop offset="1" stop-color="#ff0"/></linearGradient><clipPath id="g"><path class="p" d="M83.17,73.68s.93-10.71-8.01-10.71c-7.06,0-8.34,7.27-8.34,7.27,0,0-.38,7.48,6.96,8.44,7.34,.95,9.39-5,9.39-5Z"/></clipPath><linearGradient id="h" x1="75.01" y1="78.79" x2="75.01" y2="62.98" xlink:href="#d"/><linearGradient id="i" x1="75.56" y1="77.53" x2="75.56" y2="64.24" xlink:href="#e"/><linearGradient id="j" x1="76.73" y1="83.09" x2="76.73" y2="71.97" xlink:href="#f"/><linearGradient id="k" x1="90.08" y1="101.27" x2="90.08" y2="94.57" gradientTransform="matrix(1, 0, 0, 1, 0, 0)" gradientUnits="userSpaceOnUse"><stop offset="0" stop-color="#e2223b"/><stop offset="1" stop-color="#ffe200"/></linearGradient></defs><g class="ai"><g id="a"><ellipse class="aj" cx="102.5" cy="160" rx="33.5" ry="5"/><g><path class="o" d="M107.55,56.67s5.22-5.93,8.87-5.29c3.65,.64,2.07,6.86,4.22,14.44s3.5,12.94,1,15.37c-2.5,2.43-3,4.65-.72,8.65,2.29,4,11.87,16.51,11.87,16.51,0,0,8.79-12.23,19.09-13.94,10.3-1.72,9.22,11.58,9.22,11.58,0,0,2.65-2.57,2,3.79-.64,6.36,1.86,18.42-4.91,31-6.77,12.58-12.77,13.73-12.77,13.73,0,0-1.72,5.91-11.72,6.01,0,0,1.53,2.38-5.77,2.38s-6.43-.14-5.22-3.07c0,0-2.65-.29-5.5-2.36,0,0,1.14,2-1.86,1.86-3-.14-2.72,3.86-6.15,4.29-3.43,.43-7.94,.64-8.51-.93l-6.58-.21s.21,1.55-5.72,1.45c-5.93-.1-4.79-1.67-8.15-1.67s-3.29-2.5-3.29-2.5c0,0-17.44-2.07-28.74-13.66-11.3-11.58-6.72-21.59-3.15-26.52,3.57-4.93,3.65-12.87,10.15-21.38s7.15-10.3,4.65-13.44c-2.5-3.15-4.93-6.93-2.5-11.37,2.43-4.43,2.43-6.08,5.08-12.65,2.65-6.58,4.65-8.29,7.79-4.58l3.15,3.72s7.64,.06,10.36-2.33c.3-.27,.71-.38,1.1-.28l1.19,.32-.09-1.36c-.06-.85,.79-1.48,1.59-1.17,2.9,1.14,9.51,3.2,20.02,3.61Z"/><path class="w" d="M67.56,74.18s1.43,5.22,6.9,5.36c5.47,.14,7.7-4,7.7-4l-14.59-1.37Z"/><path class="w" d="M97.74,75.55s1.57,4.09,6.91,4.47c5.34,.38,7.68-5.84,7.68-5.84l-14.59,1.37Z"/><path class="aa" d="M94.68,74.18c.78-.74,1.22-1.73,1.27-2.78,.13-2.82,1.38-8.04,7.48-8.42,5.78-.37,8.58,4.25,9.76,6.87,.52,1.16,1.77,1.82,3.02,1.55,0,0-2.58,1.78-3.86,2.78-1.28,1-13.1,2.87-14.59,1.37-1.49-1.51-3.06-1.37-3.06-1.37Z"/><path class="aa" d="M85.22,74.18c-.78-.74-1.5-1.73-1.55-2.78-.13-2.82-1.6-8.84-7.91-8.8-5.79,.04-8.27,3.17-9.46,7.17-.36,1.22-1.35,1.9-2.6,1.62,0,0,2.58,1.78,3.86,2.78,1.28,1,13.1,2.87,14.59,1.37,1.49-1.51,3.06-1.37,3.06-1.37Z"/><g class="ag"><path class="l" d="M96.8,74.06c-.92-3.71,.07-10.46,6.57-10.48,8.53-.03,9.42,7.85,9.42,7.85,.27,3.29-2.68,7.79-8.45,7.79-5.06,0-7.54-5.16-7.54-5.16Z"/><path class="ab" d="M95.43,76.33s-.93-11.82,8.41-11.91c9.49-.09,12.82,18.39,12.82,18.39,0,0,.88-22.94-3.03-28.31-3.91-5.37-6.33-14-12.15-10.34-5.83,3.67-8.61,16.12-8.61,16.12l2.56,16.05Z"/><path class="ac" d="M110.41,71.22c0,3.67-2.98,6.65-6.65,6.65s-6.65-2.98-6.65-6.65,2.98-6.65,6.65-6.65,6.65,2.98,6.65,6.65Z"/><path class="ae" d="M108.82,78.13c0,3.07-2.49,5.56-5.56,5.56s-5.56-2.49-5.56-5.56,2.49-5.56,5.56-5.56,5.56,2.49,5.56,5.56Z"/></g><g class="ah"><path class="m" d="M83.17,73.68s.93-10.71-8.01-10.71c-7.06,0-8.34,7.27-8.34,7.27,0,0-.38,7.48,6.96,8.44,7.34,.95,9.39-5,9.39-5Z"/><g><circle class="ad" cx="75.56" cy="70.88" r="6.65"/><path class="af" d="M82.29,77.53c0,3.07-2.49,5.56-5.56,5.56s-5.56-2.49-5.56-5.56,2.49-5.56,5.56-5.56,5.56,2.49,5.56,5.56Z"/></g><path class="ab" d="M64.65,76.02s1.09-11.46,10.56-12.18c9.47-.72,9.88,18.16,9.88,18.16,0,0,3.82-22.7-.09-28.08-3.91-5.37-6.33-14-12.15-10.34-5.83,3.67-8.61,16.12-8.61,16.12l.41,16.31Z"/><path class="t" d="M78.6,67.01c.91-.22,2.87,1.66,2.76,3.04s-5.76-2.32-2.76-3.04Z"/><path class="t" d="M77.1,68.06c.27-.33,1.47,1.96,.99,2.27-.49,.31-1.26-1.95-.99-2.27Z"/></g><path class="t" d="M78.6,67.01c.91-.22,2.87,1.66,2.76,3.04s-5.76-2.32-2.76-3.04Z"/><path class="t" d="M77.1,68.06c.27-.33,1.47,1.96,.99,2.27-.49,.31-1.26-1.95-.99-2.27Z"/><path class="t" d="M106.6,67.01c.91-.22,2.87,1.66,2.76,3.04s-5.76-2.32-2.76-3.04Z"/><path class="t" d="M105.1,68.06c.27-.33,1.47,1.96,.99,2.27-.49,.31-1.26-1.95-.99-2.27Z"/><path class="r" d="M93.04,63.82c2.11,1.17,5.91-1.38,5.43-3.24-.48-1.86-3.34-2.34-5.05-1.24-1.72,1.1-1.76,3.72-.38,4.48Z"/><path class="r" d="M85.7,64.11c1.64-1.14-.81-6.01-4.58-5.11s.71,7.79,4.58,5.11Z"/><path class="ak" d="M68.06,61.06l1.8-.82c.31-.14,.39-.54,.16-.79l-1.49-1.59c-.29-.31-.8-.14-.85,.27l-.32,2.41c-.05,.39,.34,.68,.7,.51Z"/><path class="ak" d="M113.51,60.12l-1.8-.82c-.31-.14-.39-.54-.16-.79l1.49-1.59c.29-.31,.8-.14,.85,.27l.32,2.41c.05,.39-.34,.68-.7,.51Z"/><g><path class="aa" d="M91.41,79.08c-.65-.78-1.18-1.67-1.56-2.61-.11-.26-.42-.31-.59-.08-.63,.87-1.05,1.89-1.22,2.95-.03,.17,.04,.35,.23,.4,.15,.04,.37-.05,.4-.23,.13-.82,.42-1.6,.84-2.31,.39,.83,.86,1.62,1.45,2.33,.11,.13,.34,.12,.46,0,.13-.13,.11-.32,0-.46Z"/><path class="q" d="M90.17,74.68c-.37,.15-.79,.15-1.15-.01-.24-.11-.52-.12-.74,.14-.4,.48,.61,1.37,1.06,1.73,.12,.09,.28,.1,.4,0,.47-.35,1.55-1.25,1.16-1.72-.21-.26-.49-.25-.73-.15Z"/><path class="s" d="M90.17,74.68c-.37,.15-.79,.15-1.15-.01-.24-.11-.52-.12-.74,.14-.4,.48,.61,1.37,1.06,1.73,.12,.09,.28,.1,.4,0,.47-.35,1.55-1.25,1.16-1.72-.21-.26-.49-.25-.73-.15Z"/><path class="s" d="M89.34,76.54c.12,.09,.28,.1,.4,0,.4-.3,1.23-.98,1.24-1.47-.19,.54-2.04,1.12-2.77,.15,.13,.47,.79,1.05,1.13,1.32Z"/></g><path class="v" d="M88.64,81.13s2.07,1.25,3.22,1.43c1.14,.18-2.14,2.75-3.22-1.43Z"/><path class="v" d="M129.31,136.79c2.38-5.05,4.67-8.29,4.67-8.29-4.29,2.96-4-3.48-4-3.48-.29,10.34-14.49,33.32-22.5,30.93-8.01-2.38-16.15-21.92-16.15-21.92-5.19-1.14-9.86-5.81-9.86-5.81,0,0,9.04,26.12,1.73,23.55-7.31-2.57-26.53-20.69-29.2-25.66-2.67-4.97,1.72-26.49,4.77-30.68,3.05-4.19,8.6-10.04,16.24-4.48,7.64,5.55,17.88,6.67,25.51,3.34,7.12-3.12,17.49-7.57,20.81-3.76-.15-.24-.29-.47-.41-.68-2.29-4-1.79-6.22,.72-8.65,.95-.92,1.34-2.28,1.35-4.01,.09,2.85-10.23,16.14-31.99,15.57-21.92-.57-35.46-16.29-34.03-20.52-1.72,4.08,.56,7.59,2.91,10.54,2.5,3.15,1.86,4.93-4.65,13.44s-6.58,16.44-10.15,21.38c-3.57,4.93-8.15,14.94,3.15,26.52,11.3,11.58,28.74,13.66,28.74,13.66,0,0-.07,2.5,3.29,2.5s2.22,1.57,8.15,1.67c5.93,.1,5.72-1.46,5.72-1.46l6.58,.21c.57,1.57,5.08,1.36,8.51,.93,3.43-.43,3.15-4.43,6.15-4.29,3,.14,1.86-1.86,1.86-1.86,2.86,2.07,5.5,2.36,5.5,2.36-1.22,2.93-2.07,3.07,5.22,3.07s5.77-2.38,5.77-2.38c1,0,1.92-.08,2.76-.19-9.05-.58-9.53-16.49-7.15-21.54Z"/><path class="x" d="M103.19,158.12s-9.13-13.88-11.86-24.1c-5.19-1.14-9.86-5.81-9.86-5.81,0,0,7.27,14.54,7.77,28.19,0,0,4.58,1.29,4.86,4.08l6.58,.21s-.57-2.06,2.5-2.57Z"/><path class="x" d="M75.98,90.7c6.16,3.21,17.99,7.43,35.43-1.15,4.77-2.35,7.82-1.61,9.74,.68-.08-.14-.17-.28-.24-.4-1.93-3.38-1.87-5.48-.3-7.52-2.63,2.73-7.65,6.05-10.92,7.59-3.27,1.54-18.1,8.59-34.42,.13-16.3-8.45-14.54-6.18-17.15-9.69,.53,.84,1.13,1.64,1.74,2.41,1.71,2.16,1.95,3.67-.16,7.15,3.74-5.08,10.12-2.42,16.28,.79Z"/><path class="x" d="M117.2,155.47s7.15-8.48,11.06-20.02c0,0-3.62,18.11-11.06,20.02Z"/><path class="x" d="M129.93,157.81s-3.96-4.05-7.22,.02c0,0,2.98-6.17,7.22-.02Z"/><path class="x" d="M103.93,158.75c.15-.02,.27-.15,.25-.31-.02-.15-.15-.27-.31-.25-1.55,.15-2.25,1.81-2.57,3.15,.15,.09,.33,.17,.52,.23,.27-1.2,.85-2.7,2.1-2.82Z"/><path class="x" d="M106.18,159.39c.72-.43,1.33-.27,1.36-.26,.15,.04,.3-.05,.34-.19,.04-.15-.04-.3-.19-.35-.03,0-.85-.23-1.78,.31-.89,.52-1.57,1.53-2.02,3.01,.19,.01,.38,.02,.58,.02,.41-1.24,.99-2.11,1.71-2.54Z"/><path class="x" d="M86.67,158.46c-.14-.06-.31,0-.37,.14-.06,.14,0,.31,.14,.37,1.67,.75,2.54,1.88,3,2.96,.2,0,.39-.01,.58-.02-.47-1.25-1.43-2.59-3.35-3.46Z"/><path class="x" d="M90.17,158.2c-.15-.02-.29,.08-.32,.23-.02,.15,.08,.3,.23,.32,.1,.02,2.08,.37,2.62,2.79,.2-.06,.38-.12,.53-.19-.66-2.74-3.04-3.15-3.07-3.16Z"/><path class="x" d="M125.33,157.53c.14-.07,.2-.24,.13-.37-.07-.14-.24-.2-.37-.13-1.78,.88-2.27,2.39-2.33,3.67,.15,.03,.33,.06,.54,.08,.04-1.13,.47-2.48,2.04-3.25Z"/><path class="x" d="M128.62,158.4c.15-.02,.26-.16,.25-.31-.02-.15-.17-.26-.31-.25-.05,0-1.34,.16-2.12,1.26-.35,.49-.53,1.09-.57,1.79,.18,0,.37,0,.56,0,.03-.57,.18-1.06,.46-1.46,.63-.9,1.72-1.04,1.73-1.04Z"/><path class="u" d="M75.01,89.91s15.74,8.22,34.69,0c0,0-21.11,11.65-34.69,0Z"/><path class="n" d="M89.51,100.99c-5.21-1.9-2.76-7.01,1.36-6.36,4.12,.64,3.52,8.15-1.36,6.36Z"/><path class="u" d="M88,98.7c.68-1.26,2.98-1.63,3.57-1.7,.08,.04,.16,.07,.25,.08,.04,0,.07,0,.11,0,.23,0,.34-.11,.38-.21,.11-.24-.08-.49-.27-.66l-.09-.05c-.35-.14-.54-.03-.62,.05-.08,.07-.12,.17-.12,.27-.91,.14-2.99,.6-3.71,1.95-.18,.34-.26,.71-.25,1.11,.19,.22,.42,.44,.69,.64-.19-.56-.18-1.06,.05-1.48Z"/><path class="y" d="M89.51,100.99c2.64,.96,4.02-.78,4.09-2.69-.37,2.25-7.8-1.1-6.13-2.68-1.51,1.47-1.4,4.12,2.03,5.37Z"/><g><path class="a`" d="M100.44,124.71c-3.11,.52-6.41-1-8.05-3.69-.1-.17-.39-.2-.48,0-.35,.71-1.28,.84-1.95,.53-.84-.39-1.29-1.33-1.59-2.16-.07-.2-.3-.27-.47-.12-.87,.77-2.25,.83-3.14,.06-.42-.36-.71-.86-.82-1.41-.1-.51,.1-1.13-.27-1.55-.33-.38-.94-.46-1.37-.69-.48-.25-.92-.57-1.3-.96-.8-.8-1.34-1.84-1.49-2.97-.18-1.35,.18-2.73,.97-3.84,.21-.29-.28-.57-.48-.28-1.52,2.12-1.43,5.05,.22,7.07,.37,.46,.82,.85,1.31,1.18,.26,.17,.53,.32,.81,.44,.26,.11,.66,.17,.87,.37,.23,.23,.12,.66,.13,.95,.02,.32,.09,.63,.2,.92,.21,.53,.57,1,1.03,1.34,1,.74,2.38,.68,3.39,0,.38,.93,.95,1.86,1.93,2.22,.76,.28,1.71,.13,2.25-.47,1.84,2.69,5.22,4.13,8.45,3.59,.35-.06,.2-.6-.15-.54Z"/><path class="a`" d="M125.97,94.35c-.3,1.48-1.01,2.84-2.06,3.92-.25,.26,.14,.66,.4,.4,1.11-1.14,1.89-2.6,2.21-4.16,.07-.35-.47-.5-.54-.15Z"/><path class="a`" d="M127.69,96.91c-.12-.06-.32-.04-.38,.1-.09,.19-.19,.38-.31,.55-.11,.16-.22,.29-.38,.45-.07,.07-.15,.14-.23,.21-.04,.03-.08,.07-.12,.1-.05,.04-.07,.05-.09,.07-.18,.13-.36,.24-.56,.33-.14,.07-.17,.26-.1,.38,.08,.14,.25,.17,.38,.1,.82-.39,1.5-1.09,1.88-1.91,.06-.13,.04-.31-.1-.38Z"/><path class="a`" d="M151.49,94.48c-.06,.35,.48,.5,.54,.15,.27-1.64-.19-3.33-1.27-4.6-.23-.27-.63,.12-.4,.4,.94,1.1,1.37,2.62,1.13,4.05Z"/><path class="a`" d="M152.95,93.99c-.02,.36,.54,.36,.56,0,.08-1.24-.12-2.49-.59-3.65-.06-.14-.19-.24-.34-.2-.13,.04-.25,.2-.2,.34,.45,1.11,.65,2.3,.57,3.5Z"/><path class="a`" d="M165.14,119.75c-.8-.87-1.85-1.49-2.99-1.77-.35-.09-.5,.45-.15,.54,1.05,.26,2.01,.82,2.74,1.62,.24,.27,.64-.13,.4-.4Z"/><path class="a`" d="M51.81,68.78c-.34-.13-.48,.41-.15,.54,3.53,1.33,6.88,3.09,9.97,5.24,.3,.21,.58-.28,.28-.48-3.14-2.18-6.54-3.95-10.11-5.3Z"/><path class="a`" d="M60.98,76.88c-3.16-1.15-6.65-1.29-9.89-.4-.35,.1-.2,.64,.15,.54,3.16-.86,6.52-.72,9.6,.4,.34,.12,.49-.42,.15-.54Z"/><path class="a`" d="M60.86,79.38c-2.68-.05-5.36,.32-7.92,1.09-.34,.1-.2,.64,.15,.54,2.52-.76,5.14-1.12,7.77-1.07,.36,0,.36-.55,0-.56Z"/><path class="a`" d="M129.3,71.38c-.54-.22-1.1-.18-1.66-.09-.58,.09-1.16,.2-1.74,.32-1.11,.25-2.21,.57-3.28,.96-2.17,.79-4.22,1.86-6.11,3.19-.29,.21-.01,.69,.28,.48,1.81-1.27,3.78-2.32,5.86-3.09,1.03-.38,2.08-.7,3.16-.95,.52-.12,1.03-.22,1.56-.31,.6-.1,1.21-.21,1.79,.03,.33,.14,.48-.4,.15-.54Z"/><path class="a`" d="M128.3,80.1c-3.65-1.37-7.67-1.6-11.46-.68-.35,.09-.2,.63,.15,.54,3.69-.9,7.6-.66,11.16,.68,.34,.13,.48-.41,.15-.54Z"/><path class="a`" d="M115.04,82.46c-.36-.04-.36,.52,0,.56,2.66,.27,5.65,.63,7.46,2.84,.23,.28,.62-.12,.4-.4-1.91-2.33-5.05-2.72-7.85-3.01Z"/><path class="a`" d="M156.25,115.71c-.28-.23-.68,.17-.4,.4,1.72,1.41,2.87,3.44,3.18,5.64,.31,2.18-.29,4.4-1.55,6.19-.72,1.02-1.66,1.87-2.74,2.5-.15,.09-.19,.32-.06,.44,.72,.64,.95,1.77,.44,2.61-.51,.84-1.62,1.15-2.52,.81-.25-.1-.4,.21-.32,.41,.52,1.17-.23,2.53-1.25,3.15-1.38,.82-3.16,.43-4.53-.2-.33-.15-.61,.33-.28,.48,1.6,.73,3.69,1.16,5.26,.09,1.06-.72,1.73-2.02,1.47-3.27,1.02,.16,2.12-.3,2.66-1.19,.57-.95,.41-2.21-.29-3.03,1.86-1.18,3.27-3.01,3.94-5.1,.71-2.23,.49-4.66-.52-6.76-.58-1.22-1.43-2.31-2.48-3.16Z"/><path class="a`" d="M120.87,136.51c1.04,1.24,1.47,2.92,1.25,4.51-.2,1.43-1.16,3.61-2.9,3.5-.23-.01-.32,.24-.24,.42,.22,.51,.25,1.18-.15,1.61-.33,.36-.88,.45-1.28,.17-.3-.21-.58,.28-.28,.48,.61,.42,1.46,.27,1.96-.25,.48-.51,.54-1.23,.37-1.87,1.74-.17,2.79-2.25,3.04-3.8,.3-1.83-.18-3.73-1.38-5.16-.23-.28-.63,.12-.4,.4Z"/></g><path class="x" d="M94.22,88.47c-.32,.52-1.18,.5-1.48-.03-.14-.24-.51-.19-.59,.08-.33,1.12-1.88,1.11-2.2-.01-.06-.2-.29-.3-.47-.19-.99,.57-2.24-.04-2.34-1.19-.03-.41-.68-.42-.65,0,.13,1.52,1.63,2.42,2.99,1.89,.3,.59,.88,1.02,1.56,1.02,.63,0,1.18-.35,1.5-.86,.68,.52,1.76,.4,2.23-.37,.22-.36-.34-.68-.56-.33Z"/><path class="v" d="M142.94,139.46c.59,11.28-1.19,17.49-5.29,18.67,6.52-1.34,7.76-5.61,7.76-5.61,0,0,6.01-1.14,12.77-13.73,1.76-3.28,2.89-6.52,3.62-9.63-2.38,10.77-15.72,7.15-15.72,7.15,0,0,2.76-24.02-6.1-19.16,0,0-1.08-3.97-2.76-5.97s-4.43-4.83-4.43-4.83c3.15,4.58,3.65,11.37,3.65,11.37,0,0,5.86,9.44,6.51,21.73Z"/></g></g></g></svg>