<?xml version="1.0" encoding="UTF-8"?><svg xmlns="http://www.w3.org/2000/svg" xmlns:xlink="http://www.w3.org/1999/xlink" viewBox="0 0 200 200"><defs><style>.l{fill:url(#d);}.m{fill:url(#k);}.n{fill:url(#c);}.o{fill:url(#b);}.p{fill:none;}.q{fill:#f9d4b9;}.r,.s{fill:#f3b888;}.t,.u{fill:#fff;}.v,.w{fill:#f37e88;}.x,.y,.a`,.aa,.ab{fill:#a62700;}.ac{fill:#d4886b;}.ad{fill:#1c0a01;}.y,.ae{opacity:.17;}.y,.ae,.a`,.s,.af,.aa,.ag,.ah,.u,.ab,.ai,.aj{mix-blend-mode:multiply;}.ae,.af{fill:#592774;}.ak{fill:url(#g);}.ak,.al{mix-blend-mode:screen;opacity:.32;}.al{fill:url(#j);}.af{opacity:.29;}.aa{opacity:.18;}.ag{fill:#834a2c;opacity:.47;}.ah{fill:#b4aebd;opacity:.69;}.u{opacity:.8;}.ab{opacity:.5;}.ai{fill:url(#f);}.aj{fill:url(#i);}.am{clip-path:url(#e);}.an{clip-path:url(#h);}.ao{isolation:isolate;}.ap{fill:#d3dde5;opacity:.3;}.w{opacity:.42;}</style><linearGradient id="b" x1="91.84" y1="132.01" x2="142.97" y2="27.6" gradientTransform="matrix(1, 0, 0, 1, 0, 0)" gradientUnits="userSpaceOnUse"><stop offset=".12" stop-color="#f3b888"/><stop offset=".63" stop-color="#fad9c1"/><stop offset="1" stop-color="#ffefe8"/></linearGradient><linearGradient id="c" x1="89.1" y1="63.57" x2="89.1" y2="46.91" gradientTransform="translate(2.25 1.64) rotate(10.34)" gradientUnits="userSpaceOnUse"><stop offset=".09" stop-color="#ffcd00"/><stop offset="1" stop-color="#ff9000"/></linearGradient><linearGradient id="d" x1="59.66" y1="50.97" x2="59.66" y2="34.72" gradientTransform="translate(-1.94 20.25) rotate(5.47)" xlink:href="#c"/><clipPath id="e"><path class="p" d="M80.23,63.65c8.27,.26,10.4,11.74,3.97,15.26s-13.56-.56-12.21-7.77c1.06-5.67,5.65-7.57,8.23-7.49Z"/></clipPath><linearGradient id="f" x1="89.02" y1="61.63" x2="89.02" y2="48.55" gradientTransform="translate(2.25 1.64) rotate(10.34)" gradientUnits="userSpaceOnUse"><stop offset="0" stop-color="#9d0000"/><stop offset=".16" stop-color="#820300"/><stop offset=".39" stop-color="#620800"/><stop offset=".61" stop-color="#4a0b00"/><stop offset=".82" stop-color="#3c0d00"/><stop offset="1" stop-color="#380e00"/></linearGradient><linearGradient id="g" x1="86.91" y1="65.98" x2="86.91" y2="55.04" gradientTransform="translate(2.25 1.64) rotate(10.34)" gradientUnits="userSpaceOnUse"><stop offset="0" stop-color="#000"/><stop offset=".48" stop-color="olive"/><stop offset=".84" stop-color="#dbdb00"/><stop offset="1" stop-color="#ff0"/></linearGradient><clipPath id="h"><path class="p" d="M55.16,60.6c6.09,.71,7.66,9.92,3.42,14.22-4.24,4.29-12,.8-12.77-3.91s2.08-11.15,9.35-10.3Z"/></clipPath><linearGradient id="i" x1="54.8" y1="73.59" x2="54.8" y2="60.53" gradientTransform="translate(.24 .16) rotate(1.18)" xlink:href="#f"/><linearGradient id="j" x1="55.6" y1="78.4" x2="55.6" y2="67.47" gradientTransform="translate(74.52 -15.23) rotate(50.04)" xlink:href="#g"/><linearGradient id="k" x1="63.33" y1="101.52" x2="63.33" y2="94.82" gradientTransform="matrix(1, 0, 0, 1, 0, 0)" gradientUnits="userSpaceOnUse"><stop offset="0" stop-color="#e2223b"/><stop offset="1" stop-color="#ffe200"/></linearGradient></defs><g class="ao"><g id="a"><ellipse class="ap" cx="106.5" cy="160" rx="33.5" ry="5"/><g><path class="o" d="M58.36,50.76c3.98-.89,15.52-2.73,25.31,3.2,1.06,.64,2.4,.59,3.4-.16,2.02-1.52,5.27-3.75,6.29-3.13,2.36,1.42,1.51,10.75,1.59,12.8,.08,2.04,2.5,4.77,5.6,6.59,3.1,1.82,4.17,3.11,2.5,6.06,0,0,14.54-4.54,25.45-2.8,10.91,1.74,12.34-1.29,11.28-6.44-1.06-5.15-5-14.46-8.1-23.86s-.61-20.52,7.5-27.49c8.1-6.97,21.13-5.07,24.16,1.44,3.03,6.51-.83,12.95-.83,12.95,0,0,4.47,3.64,2.5,9.09,0,0,7.65,.91,9.31,15.6,1.67,14.69-9.39,21.51-9.39,21.51,0,0,2.42,.38,2.57,3.41,.15,3.03-4.92,5.23-6.51,5.07,0,0,3.18,5.83-2.57,6.44,0,0,7.04,9.92,2.42,22.49,0,0,3.94,2.8-2.27,9.24,0,0,.91,2.12-.61,3.79,0,0-1.7,6.17,4.5,7.12,.4,.06,.75,.3,.92,.67,1.16,2.56,5.75,12.74,7,17.36,0,0-.15,1.51-1.97,2.04-1.82,.53-4.92-1.82-5.76-3.03s-4.7-10.68-6.21-12.19-2.5,.15-7.5,.3c-5,.15-12.72-6.74-12.72-6.74,0,0-4.54,5.07-7.65,7.42,0,0-.58,2.95,1.4,4.23,.3,.19,.45,.54,.46,.9,.03,2.23-.17,9.57-3.96,14.42-.12,.15-.26,.26-.43,.34-1.04,.49-5.02,2.15-7.67,.27-.3-.22-.46-.59-.45-.96,.05-.93,.58-2.58,3.71-3.03,0,0,1.25-3.91,.65-6.56-.61-2.65-3.03-2.04-5.45-4.39,0,0-5.53,4.09-9.31,.68,0,0-1.21,7.19-9.47-.45,0,0-4.17,4.7-8.25,6.51s-4.47,7.5-8.33,6.44c0,0-2.04,7.42-7.12,10.6,0,0-4.46,.99-7.16-.11-.53-.22-.82-.82-.66-1.37,.28-.94,1.14-2.31,3.73-2.84,0,0,4.01-8.33,3.18-24.08,0,0-3.26-.91-4.54-2.95,0,0,.3,4.39-4.17,8.63-4.47,4.24-.45,5.91-4.47,9.62,0,0-1.67,7.04-5.45,10.38,0,0-5.32,1.88-7.49,.24-.33-.25-.47-.68-.4-1.08,.15-.89,.71-2.5,2.74-3.25,0,0,1.67-8.56,0-21.89-1.67-13.33-5.6-21.05-3.79-25.14,0,0-2.65-1.36-2.8-5.83-.15-4.47,5.91-9.16,5.3-14.77-.61-5.6-2.27-7.19-4.24-7.88-1.97-.68-9.47-6.13-6.21-10.45,0,0-3.94-1.29-1.59-4.77,0,0-1.21-4.09,0-5.83,1.15-1.65,4.19-.38,9.07-7.49,.54-.79,.87-1.7,.96-2.65,.24-2.57,.93-7.93,2.47-8.64,1.33-.61,5.06,2.23,6.96,3.8,.72,.59,1.66,.82,2.57,.61Z"/><path class="ah" d="M122.29,149.12c.61,2.65-.65,6.56-.65,6.56-3.13,.45-3.67,2.1-3.71,3.03-.02,.37,.14,.74,.45,.96,2.65,1.88,6.64,.22,7.67-.27,.17-.08,.31-.19,.43-.34,3.78-4.85,3.99-12.19,3.96-14.42,0-.36-.16-.71-.46-.9-1.98-1.29-1.4-4.23-1.4-4.23-2.42,2.88-9.39,5.07-11.74,5.23,2.42,2.35,4.85,1.74,5.45,4.39Z"/><path class="u" d="M102.07,125.12s4.21-.53-1.57-8.1c0,0,20.05-.45,20.5-17.95l1.74,3.18,2.27-3.18s-5.23,13.71,11.21,33.02c0,0,7.72,6.89,12.72,6.74,5-.15,5.98-1.82,7.5-.3,1.51,1.51,5.38,10.98,6.21,12.19s3.94,3.56,5.76,3.03c1.82-.53,1.97-2.04,1.97-2.04-1.25-4.62-5.84-14.8-7-17.36-.17-.37-.52-.61-.92-.67-6.2-.95-4.5-7.12-4.5-7.12,1.51-1.67,.61-3.79,.61-3.79,6.21-6.44,2.27-9.24,2.27-9.24,3.51-9.54,.3-17.55-1.46-20.86-.39-.6-.72-1.15-.97-1.63-3.33-6.59-13.03-12.04-13.03-12.04,0,0,16.51-.25,18.48-16.41,1.97-16.16-18.18-28.28-25.14-27.97-6.96,.3-7.74,6.05-5.54,12.78,2.76,7.82,5.71,15.13,6.6,19.48,1.06,5.15-.38,8.18-11.28,6.44-10.91-1.74-25.45,2.8-25.45,2.8,0,0,.05,2.83-2.95,3.83,0,0,.8,5.56-4.35,5.41,0,0-1.82,7.42-11.55,6.51,0,0-8.38,20.2,5.55,20.7,0,0-4.85,8.28,2.63,7.17,0,0-.4,3.94-6.87,3.74,0,0,.81,1.72-1.41,1.31,0,0,0,4.85-5.65,7.57-5.65,2.73-5,7.75-5,7.75,.83,15.75-3.18,24.08-3.18,24.08,2.35-.43,3.79,2.38,4.44,4.07,4.81-3.3,6.77-10.36,6.77-10.36,3.86,1.06,4.24-4.62,8.33-6.44s8.25-6.51,8.25-6.51c5.6-5.53,5.53-15.68,4.01-19.84Z"/><path class="u" d="M54.81,165.78c3.79-3.33,5.45-10.38,5.45-10.38,4.01-3.71,0-5.38,4.47-9.62,4.47-4.24,4.17-8.63,4.17-8.63l-.76-1.36s-15.55-1.21-17.06-15.45c0,0-4.34,.81-3.74-4.34,0,0-1.14,.13-1.46-1.34-1.82,4.09,2.12,11.81,3.79,25.14,1.67,13.33,0,21.89,0,21.89,0,0,4.39-.15,5.15,4.09Z"/><path class="u" d="M98.58,77.04s.91,3.24-5.91,7.71c-6.81,4.46-17.5,.61-20.62-5.11-1.8-3.29-2.45-4.9-3.49-6.62,0-.01-.02-.03-.03-.04-1.15-1.54-3.34-1.89-4.91-.78-1.61,1.14-2.44,2.85-3.44,3.96-1.42,1.59-5.83,7.39-12.35,5.37-6.51-2.03-8.02-9.49-8.02-9.49,0,0-3.96-.51-4.02-4.43-.02-.93,.11-1.85,.53-2.47,1.15-1.65,4.19-.38,9.08-7.5,.53-.78,.87-1.7,.96-2.66,.24-2.56,.93-7.93,2.46-8.63,1.33-.62,5.05,2.22,6.95,3.78,.72,.61,1.67,.83,2.59,.62,3.99-.89,15.52-2.72,25.31,3.2,1.07,.65,2.41,.59,3.41-.17,2.02-1.52,5.27-3.74,6.28-3.12,2.37,1.41,1.52,10.75,1.6,12.79,.07,2.05,2.49,4.77,5.6,6.6,2.22,1.29,3.37,2.34,3.25,3.9-.31,2.21-5.22,3.07-5.22,3.07Z"/><g><path class="ad" d="M70.09,73.91s.36,.16,1.48-3.62c1.12-3.78,3.96-6.87,8.06-7.14,4.09-.28,7.24,2.28,8.3,5.64s2.26,3.36,2.26,3.36c0,0-1.67,.54-3.33,3.61-1.66,3.07-13.3,2-13.9,.48-.59-1.52-2.87-2.33-2.87-2.33Z"/><path class="ad" d="M62.04,72.91s-.38,.06-.32-3.86c.06-3.92-1.7-7.6-5.45-8.88-3.76-1.28-7.45,.41-9.43,3.39-1.97,2.98-2.61,2.93-2.61,2.93,0,0,.91,.68,1.57,4.05,.66,3.37,12.09,5.24,13.09,3.93,1-1.32,3.15-1.57,3.15-1.57Z"/><path class="af" d="M45.79,70.56s.39,5.28,5.46,6.93c5.07,1.65,8.3-3.9,8.3-3.9l-13.76-3.03Z"/><path class="af" d="M72.22,75.34c1.87,4.73,4.8,5.7,7.47,5.93,2.67,.24,6.78-2.06,7.94-6.69,1.16-4.63-15.4,.76-15.4,.76Z"/><path class="n" d="M80.23,63.65c8.27,.26,10.4,11.74,3.97,15.26s-13.56-.56-12.21-7.77c1.06-5.67,5.65-7.57,8.23-7.49Z"/><path class="l" d="M55.16,60.6c6.09,.71,7.66,9.92,3.42,14.22-4.24,4.29-12,.8-12.77-3.91s2.08-11.15,9.35-10.3Z"/><g class="am"><g><g><path class="ai" d="M86.62,72.96c-.69,3.55-4.24,5.91-7.93,5.28-3.69-.63-6.12-4.02-5.43-7.56,.69-3.55,4.24-5.91,7.93-5.28,3.69,.63,6.12,4.02,5.43,7.56Z"/><path class="ak" d="M82.48,77.73c-.58,2.97-3.55,4.94-6.63,4.42s-5.12-3.36-4.54-6.32c.58-2.97,3.55-4.94,6.63-4.42,3.09,.53,5.12,3.36,4.54,6.32Z"/></g><path class="ag" d="M71.76,74.81s-.13-11.03,9.15-10.05c9.41,.99,6.73,12.77,6.73,12.77,0,0,7.89-14.61,4.97-20.47-2.92-5.86-3.73-14.62-10.28-12.07s-11.69,14.1-11.69,14.1l1.11,15.73Z"/><path class="t" d="M83.72,68.6c.96-.05,2.57,2.1,2.2,3.41-.36,1.31-5.35-3.23-2.2-3.41Z"/><path class="t" d="M82.01,69.36c.34-.27,1.11,2.15,.56,2.37-.55,.22-.9-2.1-.56-2.37Z"/></g></g><g class="an"><g><g><path class="aj" d="M60.15,68.42c-.11,3.6-3.11,6.49-6.7,6.45-3.59-.04-6.42-3-6.31-6.6s3.11-6.49,6.7-6.45c3.59,.04,6.42,3,6.31,6.6Z"/><ellipse class="al" cx="54.33" cy="74.23" rx="5.5" ry="5.4" transform="translate(-37.32 66.31) rotate(-48.86)"/></g><path class="ag" d="M45.58,72.72s-1.2-11.01,7.93-11.29c9.3-.29,7.74,12.2,7.74,12.2,0,0,5.81-16.51,2.14-21.84s-5.78-13.83-11.6-10.29c-5.82,3.54-8.9,15.74-8.9,15.74l2.69,15.48Z"/><path class="t" d="M56.73,64.57c.9-.2,2.76,1.67,2.61,3.01s-5.57-2.35-2.61-3.01Z"/><path class="t" d="M55.23,65.59c.28-.32,1.38,1.94,.9,2.24-.49,.3-1.18-1.93-.9-2.24Z"/></g></g><path class="v" d="M66.37,80.08s-.73,1.36-1.99,1.28-1.4-2-1.4-2l.83-.49,1.39-2.37,.51,2.13,.45,.75,.21,.69Z"/><g><path class="ad" d="M62.43,78.65c.82,.76,1.6-.52,1.87-1.19,.39-.93,.58-1.96,.83-2.93,.01-.05,.05-.07,.08-.11,.06-.11,.17-.17,.3-.14,.13,.01,.22,.09,.24,.22,.02,.04,.05,.07,.05,.12-.04,1.01-.15,2.04-.04,3.05,.07,.72,.45,2.16,1.46,1.67,.37-.18,.61,.42,.24,.6-.52,.26-1.15,.18-1.56-.24-.39-.4-.6-.95-.71-1.49-.07-.34-.09-.68-.1-1.03-.1,.33-.22,.65-.39,.96-.26,.48-.62,.96-1.11,1.23-.52,.28-1.13,.18-1.56-.22-.3-.28,.1-.79,.4-.51Z"/><g><path class="q" d="M66.19,73.41c-.35,.08-.74,.03-1.05-.17-.21-.13-.46-.18-.7,.03-.43,.38,.37,1.34,.74,1.73,.1,.1,.25,.13,.37,.06,.48-.26,1.59-.93,1.29-1.42-.16-.27-.42-.29-.65-.24Z"/><path class="s" d="M66.19,73.41c-.35,.08-.74,.03-1.05-.17-.21-.13-.46-.18-.7,.03-.43,.38,.37,1.34,.74,1.73,.1,.1,.25,.13,.37,.06,.48-.26,1.59-.93,1.29-1.42-.16-.27-.42-.29-.65-.24Z"/><path class="s" d="M65.17,75c.1,.1,.25,.13,.37,.06,.4-.22,1.26-.73,1.33-1.18-1.3,.8-2.02,.75-2.56-.24,.06,.45,.58,1.07,.85,1.36Z"/></g><path class="ae" d="M62.08,83.41s1.73,1.43,2.75,1.75-2.34,2.23-2.75-1.75Z"/></g></g><path class="r" d="M67.39,64.23c-1.26-2.3,4.11-6.28,6.46-4.2,2.35,2.08-4.04,8.63-6.46,4.2Z"/><path class="r" d="M65.34,63.82c1.73-1.38-1.14-7.19-3.63-5.83-2.07,1.14-.52,9.14,3.63,5.83Z"/><path class="w" d="M51.39,54.77l1.87-1.37c.32-.23,.32-.71,0-.94l-2.08-1.47c-.4-.28-.95,.03-.91,.51l.21,2.84c.03,.45,.55,.69,.92,.43Z"/><path class="w" d="M90.3,59.33l-1.88-1.35c-.32-.23-.32-.71,0-.94l2.07-1.49c.4-.29,.95,.02,.92,.51l-.18,2.84c-.03,.45-.55,.7-.92,.43Z"/><path class="y" d="M48.37,94.07c.01,.13,0,.27,.01,.4,.1-1.76,.52-4.87,2.18-3.58,1.67,1.29,5,9.92,13.94,9.32,8.94-.61,10.75-6.06,20.59-6.44,9.85-.38,12.34-7.34,12.34-7.34,5-.9,2.65-6.48,2.65-6.48-.16,2.45-1.79,4.55-4.11,5.33l-.24,.08c-4.05,6.44-13.9,4.66-13.9,4.66-22.87,7.77-31.35-2.62-31.35-2.62,0,0-5.89,.07-10.68-4.28,1.6,1.59,3.47,2.78,4.32,3.07,1.97,.68,3.64,2.27,4.24,7.88Z"/><path class="y" d="M159.02,101.44c3.23,9.77-4.75,11.43-4.75,11.43,2.02,8.89-12.56,22.29-22.01,10.7-9.39-11.51-7.24-24.51-7.24-24.51,0,0-5.78,26.23-11.44,25.62-5.65-.61-9.77-5.65-9.77-5.65,4.17-5.52,3.61-12.52,3.61-12.52-1.92,8.18-9.09,10.8-9.09,10.8,5,18.82-3.86,30.26-8.89,34.35,.12-.06,.23-.13,.36-.19,4.09-1.82,8.25-6.51,8.25-6.51,8.25,7.65,9.47,.45,9.47,.45,3.79,3.41,9.31-.68,9.31-.68,2.42,2.35,4.85,1.74,5.45,4.39,.61,2.65-.65,6.56-.65,6.56-3.13,.45-3.67,2.1-3.71,3.03-.02,.37,.14,.74,.45,.96,2.65,1.88,6.64,.22,7.67-.27,.17-.08,.31-.19,.43-.34,3.78-4.85,3.99-12.19,3.96-14.42,0-.36-.16-.71-.46-.9-1.98-1.29-1.4-4.23-1.4-4.23,3.1-2.35,7.65-7.42,7.65-7.42,0,0,7.72,6.89,12.72,6.74,5-.15,5.98-1.82,7.5-.3,1.51,1.51,5.38,10.98,6.21,12.19s3.94,3.56,5.76,3.03c1.82-.53,1.97-2.04,1.97-2.04-1.25-4.62-5.84-14.8-7-17.36-.17-.37-.52-.61-.92-.67-6.2-.95-4.5-7.12-4.5-7.12,1.51-1.67,.61-3.79,.61-3.79,6.21-6.44,2.27-9.24,2.27-9.24,4.62-12.57-2.42-22.49-2.42-22.49,4.29,7.59,.61,10.4,.61,10.4Z"/><path class="y" d="M162.05,72.34c-10.14,4.68-21.71,1.16-21.98-2.98-.01,3.49-2.46,5.31-11.01,4.04,.03,0,.05,.02,.09,.02,3.07,.38,10.38,2.1,16.24,5.58,5.86,3.48,10.3,7.22,13.03,12.04,5.76-.61,2.57-6.44,2.57-6.44,1.59,.15,6.66-2.04,6.51-5.07-.15-3.03-2.57-3.41-2.57-3.41,0,0,11.06-6.82,9.39-21.51-.09-.79-.2-1.54-.32-2.25,.72,6.85-3.15,15.92-11.95,19.98Z"/><path class="y" d="M78.34,133.37c4.24-1.72,6.16-4.54,6.16-4.54,1.57,.4,3.43-3.03,3.43-3.03,5.15-1.11,4.44-6.06,4.44-6.06-3.33,3.41-9.92,3.03-9.92,3.03,1.21,5.23-5.3,5.15-5.3,5.15-2.5,4.24-15.35,6.73-21.64,2.12,5.09,5.16,12.62,5.75,12.62,5.75l.76,1.36c1.29,2.04,4.54,2.95,4.54,2.95,.25-2.75,.66-5.02,4.9-6.74Z"/><path class="a`" d="M50.19,88.16s4.39,5.23,13.71,6.1c9.31,.87,18.25-3.05,18.25-3.05,0,0-10.83,5.73-18.48,5.13-7.65-.61-13.48-8.18-13.48-8.18Z"/><path class="aa" d="M60.26,155.41c4.01-3.71,0-5.38,4.47-9.62,4.47-4.24,4.17-8.63,4.17-8.63l-.76-1.36s-15.55-1.21-17.06-15.45c0,0-4.34,.81-3.74-4.34,0,0-1.14,.13-1.46-1.34-.84,1.89-.44,4.57,.38,8.21-.79-4.64,3.71-.7,6.94,8.68,3.23,9.39,9.49,27.06,1.62,34.23,3.79-3.33,5.45-10.38,5.45-10.38Z"/><path class="y" d="M133.34,73.79c-1.22-.03-2.64-.16-4.29-.4,.03,0,.05,.02,.09,.02,3.07,.38,10.38,2.1,16.24,5.58,5.86,3.48,10.3,7.22,13.03,12.04,.15-12.5-19.46-16.66-25.07-17.24Z"/><path class="ac" d="M72.67,121.84c.13-.36-.44-.51-.57-.16-.42,1.13-1.54,1.81-2.62,2.21-1.23,.45-2.59,.65-3.89,.44-2.32-.38-4.43-2.26-4.34-4.74,0-.24-.26-.35-.45-.26-.59,.3-1.34,0-1.68-.54-.41-.68-.17-1.57,.32-2.14,.2-.23,0-.54-.29-.5-.99,.16-1.82-.64-2.19-1.49-.46-1.07-.15-2.24,.34-3.24,1.02-2.07,2.93-3.86,2.82-6.33-.02-.38-.61-.38-.59,0,.12,2.8-2.52,4.7-3.22,7.26-.29,1.08-.21,2.21,.44,3.15,.47,.68,1.15,1.14,1.93,1.22-.42,.75-.53,1.69-.02,2.44,.44,.66,1.26,.99,2.01,.82,.1,1.86,1.34,3.55,3.01,4.36,2.06,1.01,4.6,.79,6.64-.17,1.04-.48,1.95-1.24,2.35-2.34Z"/><path class="ac" d="M93.74,123.78c1.49,.52,2.86,1.71,3.18,3.32,.28,1.42-.41,2.99-1.75,3.58-.19,.08-.2,.43,0,.51,.54,.23,1.35,.57,1.48,1.22,.16,.74-.68,1.16-1.26,1.31-.26,.07-.28,.41-.07,.54,.87,.58,1.35,1.71,1.09,2.74-.25,1-1.11,1.74-2.11,1.92-.38,.07-.22,.64,.16,.57,1.22-.22,2.29-1.21,2.54-2.44,.23-1.09-.17-2.2-.95-2.95,.66-.29,1.24-.82,1.21-1.59-.03-.76-.65-1.26-1.3-1.6,1.23-.82,1.8-2.43,1.55-3.88-.32-1.85-1.91-3.23-3.61-3.83-.36-.13-.52,.45-.16,.57Z"/><path class="ac" d="M122,118.74c-.36-.14-.51,.44-.16,.57,1.75,.66,2.43,2.6,2.39,4.33-.02,.88-.16,1.82-.62,2.58-.44,.72-1.27,1.26-2.13,1.05-.32-.07-.54,.38-.23,.54,.41,.22,.64,.73,.44,1.17-.2,.42-.77,.61-1.18,.42-.28-.13-.64,.23-.36,.47,1.22,1,.36,2.66-.57,3.5-.92,.84-2.36,1.39-3.52,.72-.33-.19-.63,.32-.3,.51,1.43,.83,3.2,.18,4.32-.89,.95-.91,1.67-2.51,.97-3.69,.47-.05,.92-.29,1.15-.74,.24-.46,.16-.99-.09-1.41,.67-.08,1.29-.43,1.72-.96,.69-.84,.91-1.96,.97-3.01,.12-2.11-.71-4.37-2.81-5.17Z"/><path class="ac" d="M150.71,109.97c.79-.21,1.43-.95,1.49-1.79,.07-.95-.57-1.78-1.39-2.2,.57-.32,1.03-.83,1.28-1.44,.39-.93,.31-1.96-.05-2.88-.77-1.96-2.55-3.51-4.46-4.32-1.15-.48-2.38-.66-3.61-.43-.37,.07-.22,.64,.16,.57,2.39-.47,4.9,.94,6.39,2.75,.7,.85,1.26,1.92,1.25,3.04-.02,1.14-.74,2.22-1.89,2.45-.28,.06-.29,.52,0,.57,.84,.14,1.69,.78,1.74,1.69,.05,.85-.81,1.66-1.66,1.42-.33-.09-.51,.36-.23,.54,1.4,.9,2.24,2.55,2.12,4.21-.12,1.63-1.18,3.09-2.63,3.8-.34,.17-.04,.68,.3,.51,1.65-.8,2.79-2.48,2.92-4.31,.11-1.58-.58-3.13-1.73-4.18Z"/><path class="ac" d="M158.57,77.07c-.37-.05-.53,.52-.16,.57,1.86,.26,3.78-.51,4.91-2.03,1.07-1.45,1.23-3.42,.53-5.06,.94,.03,1.83-.69,2.45-1.34,.86-.89,1.54-1.94,2.01-3.07,.97-2.29,1.04-4.89,.19-7.24-.49-1.34-1.25-2.56-2.23-3.58-.27-.28-.68,.14-.42,.42,1.58,1.64,2.55,3.84,2.65,6.12,.1,2.22-.62,4.44-1.98,6.19-.67,.86-1.88,2.3-3.11,1.8-.25-.1-.45,.23-.33,.44,.87,1.51,.81,3.49-.2,4.92-.95,1.34-2.68,2.07-4.3,1.85Z"/><path class="ac" d="M155.39,28.51c.29-.65,.37-1.39,.15-2.05,1.16,.43,2.47,.63,3.36-.43,.97-1.15,1.14-2.9,.78-4.31-.09-.37-.67-.21-.57,.16,.3,1.18,.18,2.59-.53,3.61-.86,1.23-2.41,.65-3.52,.14-.3-.14-.59,.2-.36,.47,.48,.55,.47,1.34,.23,1.99-.23,.62-.93,1.62-1.69,1.09-.31-.22-.61,.29-.3,.51,1,.71,2.05-.29,2.45-1.18Z"/><path class="ac" d="M48.57,99.27c.05,0-.04,0-.04,0-.03,0-.05,0-.08,0-.06,0-.11,0-.17,0-.03,0-.05,0-.08,0,0,0-.07,0-.03,0-.05,0-.1-.02-.15-.03-.23-.05-.36-.11-.56-.23-.1-.06-.15-.1-.22-.16-.08-.07-.15-.15-.22-.23-.1-.12-.22-.34-.27-.49-.05-.15-.2-.25-.36-.21-.15,.04-.26,.21-.21,.36,.36,1.05,1.45,1.7,2.54,1.55,.16-.02,.25-.23,.21-.36-.05-.17-.21-.23-.36-.21Z"/><path class="ac" d="M48.15,100.92c.37-.1,.21-.67-.16-.57-.73,.2-1.53-.05-2.03-.64-.1-.12-.31-.11-.42,0-.12,.12-.1,.3,0,.42,.62,.74,1.68,1.05,2.6,.79Z"/><path class="ac" d="M75.38,145.03c-1-.14-2.01-.1-2.99,.15-.37,.09-.21,.66,.16,.57,.87-.22,1.78-.27,2.67-.15,.16,.02,.32-.04,.36-.21,.04-.14-.05-.34-.21-.36Z"/><path class="ac" d="M103.61,136.04c-.29-.74-.75-1.41-1.37-1.93-.12-.1-.3-.13-.42,0-.1,.11-.13,.31,0,.42,.14,.12,.27,.24,.4,.37,.06,.06,.12,.13,.17,.2,.03,.03,.06,.07,.08,.1-.03-.04,.01,.02,.02,.02l.04,.06c.1,.14,.2,.29,.28,.45,.04,.08,.09,.16,.13,.25,.02,.04,.04,.08,.05,.12,.02,.04,.03,.07,.04,.09,.06,.14,.2,.26,.36,.21,.14-.05,.27-.21,.21-.36Z"/><path class="ac" d="M103.94,134.52c.12,.09,.34,.02,.41-.11,.08-.16,.03-.31-.11-.41-.54-.41-1.08-.81-1.61-1.22-.12-.09-.34-.02-.41,.11-.08,.16-.03,.31,.11,.41l1.61,1.21Z"/><path class="ac" d="M159.91,98.55c.95-.5,1.74-1.32,2.2-2.29,.07-.14,.04-.32-.11-.41-.13-.08-.34-.04-.41,.11-.43,.9-1.12,1.61-1.99,2.07-.14,.07-.18,.27-.11,.41,.08,.14,.26,.18,.41,.11Z"/><path class="ac" d="M162.77,97.83c-.12-.12-.3-.1-.42,0-.72,.61-1.58,1.03-2.5,1.22-.16,.03-.25,.22-.21,.36,.04,.16,.21,.24,.36,.21,1.02-.22,1.97-.7,2.77-1.37,.12-.1,.11-.31,0-.42Z"/><path class="ac" d="M130.95,32.56s-.07,0-.1,0c-.01,0-.11-.01-.05,0-.06,0-.11-.02-.17-.03-.06-.01-.12-.03-.18-.05-.01,0-.1-.04-.05-.02-.03-.01-.05-.02-.08-.04-.11-.06-.22-.12-.32-.2,.04,.03-.03-.02-.03-.03-.02-.02-.04-.04-.07-.06-.05-.04-.09-.09-.13-.13-.02-.02-.04-.04-.06-.07,0,0-.07-.08-.04-.04-.04-.05-.07-.09-.1-.14-.03-.05-.07-.11-.09-.16-.02-.03-.03-.06-.04-.09-.03-.06,0,.03-.01-.04-.04-.12-.08-.24-.1-.36-.01-.06,0,.03,0-.04,0-.03,0-.06,0-.09,0-.07,0-.14,0-.2,0-.16-.14-.3-.3-.3-.17,0-.29,.14-.3,.3-.07,1.23,1.01,2.36,2.24,2.38,.16,0,.3-.14,.3-.3s-.14-.29-.3-.3Z"/><path class="ac" d="M131.74,31.88c-.11-.02-.22-.05-.33-.09-.01,0-.08-.03-.03-.01-.03-.01-.05-.02-.08-.04-.05-.02-.1-.05-.15-.08-.05-.03-.1-.06-.14-.09-.02-.02-.05-.03-.07-.05-.05-.04,.02,.02-.03-.02-.09-.07-.18-.15-.26-.24-.04-.04-.08-.08-.11-.13-.04-.05-.06-.08-.07-.1-.06-.09-.12-.19-.17-.29-.01-.03-.02-.05-.04-.08-.03-.09-.05-.14-.07-.19-.02-.05-.03-.11-.04-.16,0-.03-.01-.06-.02-.08,0-.01-.02-.11,0-.05-.02-.16-.12-.3-.3-.3-.15,0-.32,.14-.3,.3,.13,1.09,.96,2.05,2.04,2.28,.16,.03,.32-.05,.36-.21,.04-.15-.05-.33-.21-.36Z"/><path class="ac" d="M163.52,33.29c.92-.49,1.61-1.35,1.91-2.34,.05-.15-.06-.32-.21-.36-.16-.04-.32,.05-.36,.21-.25,.84-.85,1.56-1.64,1.98-.14,.08-.18,.27-.11,.41,.08,.14,.26,.18,.41,.11Z"/><path class="ac" d="M52.02,164.3c.25-.28-.16-.7-.42-.42-.68,.76-.93,1.79-.75,2.77,.2-.02,.4-.04,.6-.07-.17-.8,.03-1.67,.57-2.28Z"/><path class="ac" d="M48.79,163.69c.1-.13,.02-.33-.11-.41-.15-.09-.31-.02-.41,.11-.51,.67-.96,1.43-1.09,2.27-.01,.07,0,.14-.01,.21,.05,.05,.09,.11,.14,.15,.13,.1,.27,.18,.42,.26-.02-.92,.51-1.89,1.05-2.59Z"/><path class="ac" d="M71.64,166.35c-.71,.65-1.12,1.6-1.15,2.57,.2,0,.4,0,.59-.01,.04-.81,.37-1.58,.98-2.14,.28-.26-.14-.68-.42-.42Z"/><path class="ac" d="M68.67,166.11c.13-.09,.19-.26,.11-.41-.07-.13-.28-.2-.41-.11-.84,.61-1.37,1.59-1.48,2.61,.09,.08,.18,.15,.3,.19,.09,.04,.19,.07,.28,.1,.02-.92,.44-1.84,1.2-2.39Z"/><path class="ac" d="M122.16,157.67c.38-.03,.38-.63,0-.59-1.08,.1-2.11,.61-2.79,1.46-.32,.4-.53,.85-.68,1.32,.17,.1,.35,.19,.53,.26,.37-1.3,1.51-2.33,2.93-2.46Z"/><path class="ac" d="M166.62,149.86c-.09-.37-.66-.21-.57,.16,.27,1.16,1.3,1.93,2.33,2.4,.46,.21,.93,.36,1.42,.48,.16-.18,.27-.35,.35-.52-.47-.1-.93-.24-1.37-.43-.93-.41-1.91-1.04-2.15-2.09Z"/><path class="ac" d="M163.46,150.72c.1,.41,.23,.82,.38,1.21,.3,.25,.64,.5,.99,.74-.35-.67-.62-1.37-.8-2.11-.09-.37-.66-.21-.57,.16Z"/><g><path class="ac" d="M24.57,70.37c4.96-1.15,10.05-1.67,15.13-1.58,.49,0,.44-.75-.04-.76-5.16-.1-10.3,.45-15.33,1.61-.47,.11-.23,.83,.24,.72h0Z"/><path class="ac" d="M29.86,79.34c2.9-3.34,6.79-5.69,11.09-6.73,.47-.11,.23-.83-.24-.72-4.42,1.07-8.44,3.53-11.42,6.96-.32,.37,.25,.86,.57,.5h0Z"/><path class="ac" d="M34.4,83.15c2.26-2.74,4.93-5.11,7.93-7.03,.41-.26,0-.89-.42-.63-3.05,1.95-5.78,4.37-8.08,7.16-.31,.37,.26,.87,.57,.5h0Z"/><path class="ac" d="M92.94,79.89c2.72,1.25,5.28,2.84,7.59,4.74,1.15,.94,2.23,1.96,3.25,3.04,.49,.52,.96,1.05,1.42,1.6,.52,.63,1.07,1.26,1.19,2.1,.06,.48,.8,.28,.73-.19-.1-.78-.54-1.4-1.02-2-.5-.62-1.02-1.23-1.56-1.81-1.05-1.13-2.17-2.19-3.35-3.17-2.4-1.99-5.04-3.66-7.87-4.96-.44-.2-.82,.45-.37,.66h0Z"/><path class="ac" d="M88.74,82.66c3.56,3.7,5.93,8.42,6.8,13.48,.08,.48,.81,.28,.73-.19-.88-5.19-3.35-10.04-7-13.83-.34-.35-.87,.19-.53,.54h0Z"/><path class="ac" d="M85.22,85.44c1.49,3.29,3.1,7.02,1.75,10.63-.17,.46,.56,.65,.73,.19,1.42-3.81-.26-7.74-1.83-11.21-.2-.44-.85-.06-.65,.38h0Z"/></g><g><path class="m" d="M62.76,101.24c-5.21-1.9-2.76-7.01,1.36-6.36,4.12,.64,3.52,8.15-1.36,6.36Z"/><path class="x" d="M61.25,98.95c.68-1.26,2.98-1.63,3.57-1.7,.08,.04,.16,.07,.25,.08,.04,0,.07,0,.11,0,.23,0,.34-.11,.38-.21,.11-.24-.08-.49-.27-.66l-.09-.05c-.35-.14-.54-.03-.62,.05-.08,.07-.12,.17-.12,.27-.91,.14-2.99,.6-3.71,1.95-.18,.34-.26,.71-.25,1.11,.19,.22,.42,.44,.69,.64-.19-.56-.18-1.06,.05-1.48Z"/><path class="ab" d="M62.76,101.24c2.64,.96,4.02-.78,4.09-2.69-.37,2.25-7.8-1.1-6.13-2.68-1.51,1.47-1.4,4.12,2.03,5.37Z"/></g></g></g></g></svg>